<svg version="1.1" id="Layer_1" xmlns="http://www.w3.org/2000/svg" xmlns:xlink="http://www.w3.org/1999/xlink" x="0px" y="0px"
	 width="100%" viewBox="0 0 294 172" enable-background="new 0 0 294 172" xml:space="preserve">
<path fill="#F5F5F5" opacity="1.000000" stroke="none" 
	d="
M218.000000,173.000000 
	C145.333344,173.000000 73.166687,173.000000 1.000019,173.000000 
	C1.000013,115.666679 1.000013,58.333363 1.000006,1.000035 
	C98.999969,1.000023 196.999939,1.000023 294.999939,1.000012 
	C294.999939,58.333298 294.999939,115.666595 294.999969,172.999939 
	C269.500000,173.000000 244.000000,173.000000 218.000000,173.000000 
M118.787758,92.287880 
	C117.788467,93.402603 116.745598,94.481552 115.796677,95.637611 
	C106.792450,106.607361 98.494850,117.990250 95.793442,132.357162 
	C95.515099,133.837448 96.006134,136.058914 97.009560,137.092285 
	C108.244003,148.662109 121.938278,155.475723 137.998322,157.868973 
	C138.450928,156.965759 138.936172,156.275391 139.160538,155.508682 
	C143.808395,139.625427 148.537338,123.764633 153.018066,107.834099 
	C157.107925,93.293205 158.001831,77.459244 170.710220,66.314651 
	C167.548981,62.662487 164.533905,59.179192 161.346359,55.496639 
	C145.734818,66.192093 131.709000,78.057167 118.787758,92.287880 
M139.293900,62.788055 
	C144.606079,58.693794 149.918274,54.599533 155.407288,50.368980 
	C153.974609,49.103806 152.807236,48.170845 151.753342,47.123684 
	C148.741196,44.130814 146.234131,43.262505 142.120346,46.354183 
	C134.506897,52.076008 125.582710,55.161755 116.167984,57.169384 
	C104.851471,59.582565 93.668480,62.685860 82.557281,65.933739 
	C80.746742,66.462967 78.513565,69.182266 78.341652,71.060112 
	C77.543015,79.783981 76.487411,88.649117 77.256523,97.309814 
	C78.208229,108.026604 82.257858,118.021957 88.804047,126.980438 
	C91.434067,121.247238 93.531197,115.672874 96.424469,110.547974 
	C107.058472,91.711777 122.378845,76.985008 139.293900,62.788055 
M156.717041,124.132217 
	C153.373489,135.531555 150.029922,146.930878 146.635788,158.502609 
	C158.566803,158.913147 170.272003,156.602066 180.756378,150.631180 
	C194.564026,142.767685 192.685196,146.208725 191.312164,130.428848 
	C191.225739,129.435516 191.177185,128.437744 191.056213,127.448730 
	C188.724838,108.388245 184.118805,90.016441 173.912064,71.606476 
	C170.955124,77.242447 167.647995,81.713676 166.171738,86.724342 
	C162.617676,98.787331 159.921021,111.102928 156.717041,124.132217 
M209.055771,124.519287 
	C212.213440,116.206200 215.571167,107.961906 218.461731,99.556961 
	C220.549042,93.487709 219.600159,87.956879 214.329681,83.468224 
	C210.926559,80.569946 208.046539,77.066940 204.771973,74.006248 
	C198.097549,67.767715 190.456284,66.222466 181.449722,69.845139 
	C192.553391,90.604965 197.484436,113.040031 199.358871,137.591629 
	C202.978088,132.766663 205.834442,128.958710 209.055771,124.519287 
M120.206413,48.868404 
	C127.399254,46.528934 134.348969,43.731377 140.860046,38.239189 
	C132.508255,33.687847 124.831711,29.413219 117.043579,25.352591 
	C115.785553,24.696674 113.663208,24.333765 112.562469,24.948778 
	C99.331284,32.341412 89.629707,43.025612 83.155838,56.682442 
	C95.443817,54.082600 107.421829,51.548332 120.206413,48.868404 
M190.646301,41.042568 
	C182.898712,44.152554 175.151108,47.262539 166.855896,50.592346 
	C170.153259,54.488144 172.706512,57.124817 174.792160,60.090363 
	C176.432632,62.422890 177.763107,63.329845 180.833725,62.267857 
	C192.600235,58.198318 202.722275,61.554775 211.342224,70.065926 
	C213.525574,72.221725 215.323441,74.767967 217.298431,77.134796 
	C217.759140,76.719658 218.219849,76.304512 218.680573,75.889366 
	C217.314713,65.807495 213.852753,56.437592 208.054947,48.057793 
	C200.529877,37.181515 203.432907,38.998199 190.646301,41.042568 
M190.977997,33.685970 
	C191.978653,33.353100 192.979309,33.020226 194.425354,32.539192 
	C184.841553,24.409063 174.379700,19.334280 161.982086,16.843611 
	C163.751266,26.402485 159.554703,33.004856 152.653595,38.446339 
	C155.970535,41.227402 158.979996,43.750660 160.710205,45.201344 
	C171.222290,41.161804 180.713257,37.514648 190.977997,33.685970 
M125.238739,21.127626 
	C132.478119,25.345707 139.717499,29.563786 146.939011,33.771458 
	C155.345245,26.400496 156.003479,24.854063 154.501602,15.822332 
	C144.635162,14.707262 134.995590,15.950267 125.570114,19.048073 
	C125.077194,19.210079 124.868797,20.237810 125.238739,21.127626 
z"/>
<path fill="#020202" opacity="1.000000" stroke="none" 
	d="
M119.004425,92.007896 
	C131.709000,78.057167 145.734818,66.192093 161.346359,55.496639 
	C164.533905,59.179192 167.548981,62.662487 170.710220,66.314651 
	C158.001831,77.459244 157.107925,93.293205 153.018066,107.834099 
	C148.537338,123.764633 143.808395,139.625427 139.160538,155.508682 
	C138.936172,156.275391 138.450928,156.965759 137.998322,157.868973 
	C121.938278,155.475723 108.244003,148.662109 97.009560,137.092285 
	C96.006134,136.058914 95.515099,133.837448 95.793442,132.357162 
	C98.494850,117.990250 106.792450,106.607361 115.796677,95.637611 
	C116.745598,94.481552 117.788467,93.402603 119.004425,92.007896 
z"/>
<path fill="#030303" opacity="1.000000" stroke="none" 
	d="
M139.007965,62.997593 
	C122.378845,76.985008 107.058472,91.711777 96.424469,110.547974 
	C93.531197,115.672874 91.434067,121.247238 88.804047,126.980438 
	C82.257858,118.021957 78.208229,108.026604 77.256523,97.309814 
	C76.487411,88.649117 77.543015,79.783981 78.341652,71.060112 
	C78.513565,69.182266 80.746742,66.462967 82.557281,65.933739 
	C93.668480,62.685860 104.851471,59.582565 116.167984,57.169384 
	C125.582710,55.161755 134.506897,52.076008 142.120346,46.354183 
	C146.234131,43.262505 148.741196,44.130814 151.753342,47.123684 
	C152.807236,48.170845 153.974609,49.103806 155.407288,50.368980 
	C149.918274,54.599533 144.606079,58.693794 139.007965,62.997593 
z"/>
<path fill="#030303" opacity="1.000000" stroke="none" 
	d="
M156.797775,123.724426 
	C159.921021,111.102928 162.617676,98.787331 166.171738,86.724342 
	C167.647995,81.713676 170.955124,77.242447 173.912064,71.606476 
	C184.118805,90.016441 188.724838,108.388245 191.056213,127.448730 
	C191.177185,128.437744 191.225739,129.435516 191.312164,130.428848 
	C192.685196,146.208725 194.564026,142.767685 180.756378,150.631180 
	C170.272003,156.602066 158.566803,158.913147 146.635788,158.502609 
	C150.029922,146.930878 153.373489,135.531555 156.797775,123.724426 
z"/>
<path fill="#030303" opacity="1.000000" stroke="none" 
	d="
M208.873291,124.835022 
	C205.834442,128.958710 202.978088,132.766663 199.358871,137.591629 
	C197.484436,113.040031 192.553391,90.604965 181.449722,69.845139 
	C190.456284,66.222466 198.097549,67.767715 204.771973,74.006248 
	C208.046539,77.066940 210.926559,80.569946 214.329681,83.468224 
	C219.600159,87.956879 220.549042,93.487709 218.461731,99.556961 
	C215.571167,107.961906 212.213440,116.206200 208.873291,124.835022 
z"/>
<path fill="#040404" opacity="1.000000" stroke="none" 
	d="
M119.803131,48.941238 
	C107.421829,51.548332 95.443817,54.082600 83.155838,56.682442 
	C89.629707,43.025612 99.331284,32.341412 112.562469,24.948778 
	C113.663208,24.333765 115.785553,24.696674 117.043579,25.352591 
	C124.831711,29.413219 132.508255,33.687847 140.860046,38.239189 
	C134.348969,43.731377 127.399254,46.528934 119.803131,48.941238 
z"/>
<path fill="#040404" opacity="1.000000" stroke="none" 
	d="
M191.058929,40.995224 
	C203.432907,38.998199 200.529877,37.181515 208.054947,48.057793 
	C213.852753,56.437592 217.314713,65.807495 218.680573,75.889366 
	C218.219849,76.304512 217.759140,76.719658 217.298431,77.134796 
	C215.323441,74.767967 213.525574,72.221725 211.342224,70.065926 
	C202.722275,61.554775 192.600235,58.198318 180.833725,62.267857 
	C177.763107,63.329845 176.432632,62.422890 174.792160,60.090363 
	C172.706512,57.124817 170.153259,54.488144 166.855896,50.592346 
	C175.151108,47.262539 182.898712,44.152554 191.058929,40.995224 
z"/>
<path fill="#050505" opacity="1.000000" stroke="none" 
	d="
M190.591125,33.776733 
	C180.713257,37.514648 171.222290,41.161804 160.710205,45.201344 
	C158.979996,43.750660 155.970535,41.227402 152.653595,38.446339 
	C159.554703,33.004856 163.751266,26.402485 161.982086,16.843611 
	C174.379700,19.334280 184.841553,24.409063 194.425354,32.539192 
	C192.979309,33.020226 191.978653,33.353100 190.591125,33.776733 
z"/>
<path fill="#060606" opacity="1.000000" stroke="none" 
	d="
M124.883347,20.995064 
	C124.868797,20.237810 125.077194,19.210079 125.570114,19.048073 
	C134.995590,15.950267 144.635162,14.707262 154.501602,15.822332 
	C156.003479,24.854063 155.345245,26.400496 146.939011,33.771458 
	C139.717499,29.563786 132.478119,25.345707 124.883347,20.995064 
z"/>
</svg>