<svg version="1.1" id="Layer_1" xmlns="http://www.w3.org/2000/svg" xmlns:xlink="http://www.w3.org/1999/xlink" x="0px" y="0px"
	 width="100%" viewBox="0 0 667 980" enable-background="new 0 0 667 980" xml:space="preserve">
<path fill="#FFFFFF" opacity="1.000000" stroke="none" 
	d="
M668.000000,21.000000 
	C668.000000,340.959290 668.000000,660.918579 668.000000,980.938965 
	C445.735657,980.938965 223.471313,980.938965 1.103474,980.938965 
	C1.103474,654.443909 1.103474,327.887756 1.103474,1.000000 
	C213.362595,1.000000 425.725372,1.000000 638.335205,1.267652 
	C632.948608,4.237292 627.361877,7.042708 621.670593,9.617208 
	C612.967224,13.554240 604.241760,16.851294 597.968140,25.134375 
	C593.407349,31.156092 586.495544,35.385483 580.708740,40.500813 
	C579.626038,41.457844 578.021851,42.949650 578.166443,43.983727 
	C578.969116,49.722462 575.006958,53.843983 573.354797,58.665882 
	C571.616882,63.738163 571.188660,69.397842 566.017456,73.337769 
	C558.098511,79.371201 550.393433,85.926010 543.668701,93.243874 
	C516.741638,122.546234 485.765320,147.856064 460.377899,178.704559 
	C448.200165,193.501846 434.993286,207.392532 427.442810,225.400818 
	C426.619110,227.365417 425.285461,229.175323 423.930573,230.848175 
	C416.994781,239.411530 414.887482,249.166092 416.348846,259.921997 
	C416.531067,261.262878 416.395111,263.048859 415.638519,264.045593 
	C412.424377,268.279877 408.909912,272.285522 405.525574,276.391479 
	C400.682495,282.267181 395.879181,288.175812 391.010223,294.029846 
	C389.642639,295.674103 388.381439,297.695953 386.593903,298.648865 
	C380.651581,301.816650 377.978699,306.990173 376.000275,313.088074 
	C374.974060,316.250946 373.159912,319.770813 370.616730,321.696320 
	C365.894135,325.272034 360.410095,327.858734 355.181152,330.744995 
	C348.088348,334.660095 340.956879,338.506531 333.802856,342.308807 
	C330.314362,344.162872 326.905090,346.578247 323.160706,347.441559 
	C317.619202,348.719208 311.998199,349.380066 306.419464,350.835480 
	C301.333252,352.162354 296.939270,353.617188 292.864441,356.678040 
	C290.182159,358.692871 288.230865,358.144073 287.282013,354.887787 
	C285.546661,348.932404 281.882629,345.160248 275.689697,343.753143 
	C274.645782,343.515961 273.306519,341.786407 273.208435,340.650970 
	C272.725555,335.060303 268.871521,333.073700 264.455780,330.911102 
	C258.843292,328.162415 253.285568,325.037567 248.351639,321.234894 
	C242.245560,316.528839 241.071960,311.064758 243.888412,303.856171 
	C247.397079,294.875854 250.347458,285.498688 255.174332,277.249847 
	C264.822876,260.760925 275.032043,244.535400 286.007446,228.901535 
	C306.195953,200.144165 326.997742,171.808197 352.014771,146.901443 
	C358.862549,140.083847 365.679260,133.232910 372.400208,126.290794 
	C378.195984,120.304291 378.601562,114.234390 373.027985,108.193619 
	C368.649139,103.447670 363.553162,99.360664 358.748444,95.011086 
	C353.435333,90.201286 352.318024,85.743240 356.788116,80.171570 
	C361.302887,74.544182 367.123413,69.981216 372.167206,64.754402 
	C374.726440,62.102299 376.744965,58.936741 379.175873,56.149826 
	C381.082611,53.963840 382.893250,51.072670 385.369202,50.130009 
	C391.047882,47.967930 397.056793,46.761826 397.776794,39.157406 
	C397.812012,38.785568 398.470978,38.485474 398.814850,38.128281 
	C404.934387,31.771833 404.657928,26.113817 397.304413,21.278353 
	C390.096985,16.538946 382.601532,12.168112 374.899414,8.298546 
	C372.945435,7.316861 369.191895,8.053617 367.185211,9.386164 
	C360.901398,13.558889 357.028015,19.486568 355.108459,27.051451 
	C350.804443,44.013496 342.136353,58.227180 327.449615,68.425163 
	C323.379395,71.251396 319.497284,74.524620 316.121643,78.145386 
	C299.091675,96.411873 282.493591,115.085243 265.289886,133.184250 
	C247.284363,152.126770 233.113022,173.304443 223.566437,197.733932 
	C216.199905,216.584702 205.263626,232.726639 186.105942,241.930252 
	C182.027893,243.889420 178.108368,247.097900 175.335770,250.676102 
	C168.132446,259.972443 161.447571,269.686859 154.876801,279.450439 
	C151.358597,284.678223 148.636154,290.434875 145.299042,295.793701 
	C143.280975,299.034393 140.460312,301.232422 136.167068,300.415070 
	C131.728943,299.570160 130.128250,296.566071 129.022034,292.527008 
	C126.697586,284.039886 124.667053,275.350677 121.157234,267.339722 
	C116.480919,256.666260 110.511391,246.559402 105.015411,236.052475 
	C108.991272,234.374298 110.140266,233.320801 107.535339,230.517685 
	C104.057243,226.775024 101.149330,222.491501 98.102577,218.362015 
	C94.947548,214.085770 92.249451,209.426010 88.760086,205.453476 
	C83.191437,199.113770 76.158249,197.226944 67.945641,199.966019 
	C63.059704,201.595596 57.839062,202.356049 53.135658,204.365631 
	C46.784332,207.079285 40.400208,210.070374 34.787613,214.019058 
	C31.677382,216.207230 29.232965,220.314743 28.066788,224.049911 
	C26.568087,228.850143 23.884546,231.678329 19.550951,233.618683 
	C12.107815,236.951324 5.969870,242.327744 3.773593,250.015274 
	C-0.567814,265.211365 3.057773,279.022736 13.644292,290.992828 
	C17.027571,294.818268 20.889668,298.757202 22.660128,303.363861 
	C26.747652,313.999420 34.429417,320.587891 43.926033,325.874725 
	C56.052177,332.625366 68.186562,339.011078 78.778374,348.587158 
	C88.405113,357.290680 89.177940,367.734344 88.303284,378.298676 
	C87.586426,386.957092 84.013588,395.631226 80.434418,403.736572 
	C75.975014,413.835327 77.906395,423.958282 78.373787,434.143341 
	C78.442802,435.647278 79.390213,437.426453 80.488419,438.517365 
	C88.901741,446.874603 96.907394,455.780365 106.150124,463.116730 
	C112.486778,468.146423 120.426308,471.350616 127.991074,474.567108 
	C132.591873,476.523285 137.852356,476.910583 142.790466,478.109894 
	C143.510529,478.284821 144.191055,478.966919 144.710373,479.569122 
	C148.691971,484.186401 152.281296,489.206848 156.670227,493.391144 
	C161.882950,498.360718 167.792343,502.596344 173.344757,507.216217 
	C174.173950,507.906128 174.702164,508.957703 175.369614,509.841980 
	C170.067398,508.803223 166.447525,509.345795 164.914185,514.826050 
	C164.638809,515.810425 163.077774,516.382385 162.619827,517.378906 
	C161.547623,519.712097 160.543320,522.128845 159.940979,524.615845 
	C158.060257,532.380920 167.115555,541.631592 174.971390,541.708557 
	C177.461716,541.732971 180.292984,542.713379 182.361176,544.137756 
	C193.828995,552.035583 200.885391,547.532043 207.833374,536.677917 
	C211.110641,531.558105 213.995651,527.275208 220.782425,527.702759 
	C222.396683,527.804504 224.253830,527.590515 225.656281,526.861694 
	C230.156006,524.523193 234.171127,526.619995 237.119247,529.083740 
	C240.792419,532.153442 243.308228,531.261841 246.230804,528.784973 
	C247.969940,527.311096 249.601257,525.709900 251.650009,523.826782 
	C252.712097,528.936157 253.845764,533.402283 254.544739,537.935486 
	C256.744720,552.203186 260.070282,566.450134 260.582123,580.789978 
	C261.368408,602.818298 260.319489,624.903992 265.921844,646.519531 
	C267.368195,652.099976 268.514984,657.767944 270.220764,663.264954 
	C270.688812,664.773193 272.887726,667.038879 273.943085,666.862854 
	C281.451050,665.610596 288.921265,664.008789 296.263702,662.005920 
	C297.524261,661.662048 298.950806,658.829285 298.867493,657.220459 
	C298.585480,651.772949 297.695160,646.354065 296.973419,640.932800 
	C294.214447,620.209106 291.338898,599.500427 288.690338,578.762695 
	C287.102936,566.333557 285.955505,553.848450 284.395050,541.415466 
	C283.922852,537.653442 282.730225,533.981934 281.867584,530.268921 
	C286.251312,534.585266 290.887787,534.258789 296.066467,533.068604 
	C300.882019,531.961914 303.544159,533.964233 304.375305,538.718628 
	C305.459045,544.918213 306.700439,551.150330 307.007751,557.410950 
	C307.419678,565.804688 308.642303,572.942688 318.228058,575.937622 
	C322.288208,577.206177 324.045258,577.502686 324.872192,573.091125 
	C325.393250,570.311218 326.738953,570.377319 328.848419,569.921326 
	C332.457336,569.141174 336.008728,567.863892 339.394470,566.366394 
	C341.509125,565.430969 343.275696,563.708618 345.673828,562.000916 
	C345.716400,574.948242 348.653564,586.260071 354.535980,596.893066 
	C355.967682,599.481018 356.472168,602.743103 356.778778,605.758728 
	C357.413605,612.002808 356.998383,618.409302 358.161163,624.531311 
	C360.027863,634.359192 362.545593,644.090515 365.306152,653.713989 
	C368.093048,663.428955 367.625000,672.742126 362.657867,681.462158 
	C359.512451,686.984131 360.064850,692.097412 363.188446,696.904907 
	C367.037903,702.829651 368.796143,709.064026 368.310425,716.046570 
	C368.243591,717.007324 368.797913,717.997986 368.820526,718.980408 
	C369.020996,727.690979 371.236694,736.758179 365.725647,744.649109 
	C361.893158,750.136658 359.821594,756.204956 359.954895,762.624939 
	C360.445374,786.244934 360.910736,809.886108 362.425446,833.452515 
	C362.932617,841.342957 361.996155,850.081177 367.652283,857.111938 
	C368.244446,857.847900 368.144989,859.391479 367.938141,860.478882 
	C366.434509,868.384216 364.828064,876.270081 363.240570,884.159424 
	C360.649414,897.036316 353.758331,907.678040 345.807587,917.785767 
	C341.342346,923.462341 335.795959,927.311890 329.145844,930.387207 
	C322.349487,933.530273 316.313995,938.374451 310.091614,942.684998 
	C305.291626,946.010010 302.021576,951.561523 295.466553,952.327698 
	C292.525909,952.671448 289.662109,953.689026 286.720825,954.006836 
	C281.951263,954.522278 277.880951,955.810120 274.403564,959.604248 
	C271.012451,963.304443 266.709106,966.170654 262.791992,969.385620 
	C260.384827,971.361328 259.871185,973.682556 262.460052,975.612488 
	C264.509460,977.140320 267.079193,978.917969 269.423279,978.925598 
	C276.517303,978.948730 283.616791,978.202209 290.708282,977.676758 
	C293.516663,977.468628 296.379852,976.492554 299.096893,976.833191 
	C308.506104,978.012695 317.673340,977.214661 326.766937,974.690063 
	C328.512543,974.205383 330.382629,973.995972 332.199860,973.969116 
	C350.158295,973.703552 368.117188,973.435730 386.076996,973.309204 
	C397.406799,973.229370 404.565186,966.418701 404.920380,955.240356 
	C405.363556,941.291870 405.771637,927.339905 406.457031,913.402283 
	C407.336639,895.516296 412.058258,878.390381 416.833893,861.238281 
	C418.594391,854.915344 422.443359,852.449646 428.184845,851.201355 
	C436.422974,849.410522 444.607269,847.372559 452.819214,845.460205 
	C453.620148,845.273743 454.474731,845.051331 455.268951,845.145325 
	C460.475800,845.760925 461.245117,842.627136 460.551514,838.667969 
	C457.987122,824.030273 455.131531,809.442322 452.683563,794.785889 
	C450.315155,780.605835 447.052277,766.414795 446.482574,752.136780 
	C445.824066,735.632874 447.636200,719.026367 448.486145,702.470154 
	C448.630188,699.664124 449.139496,696.840271 449.804596,694.103455 
	C454.763458,673.698547 455.420654,652.972290 453.617554,632.223022 
	C451.755585,610.796936 455.553009,590.368896 461.126831,569.812866 
	C464.017944,559.150452 464.624023,547.627991 464.652649,536.489929 
	C464.689545,522.116089 463.701935,507.671814 462.086914,493.378632 
	C460.058807,475.429932 456.839081,457.618591 454.368256,439.715607 
	C453.578094,433.990143 452.491058,427.994080 453.386810,422.418610 
	C454.825684,413.462463 457.308594,404.582001 460.291992,395.996796 
	C462.466949,389.738098 463.597656,382.948975 469.043030,377.929901 
	C482.947571,365.113953 492.935059,349.290161 500.378265,332.157288 
	C508.237305,314.067230 514.974976,295.466705 521.629578,276.884033 
	C527.087952,261.641785 533.110046,247.209442 545.203003,235.474701 
	C551.926697,228.950150 556.766357,220.078232 561.028625,211.551178 
	C564.441345,204.723724 568.570007,198.818008 573.644775,193.255798 
	C585.807068,179.925369 601.030884,169.327942 609.745178,152.906403 
	C611.914429,148.818558 615.218384,145.065598 616.306763,140.733124 
	C618.000732,133.990021 613.961792,128.934418 609.382385,124.118683 
	C597.596130,111.724213 603.253540,98.941841 614.234192,91.903847 
	C620.028687,88.189865 625.765686,84.327225 631.126221,80.029686 
	C632.824463,78.668198 634.204285,75.612160 634.048157,73.453194 
	C633.248291,62.390659 640.415588,55.245735 647.084045,48.739922 
	C655.493042,40.536064 664.089294,32.929623 667.308105,21.010113 
	C667.538757,21.015169 668.000000,21.000000 668.000000,21.000000 
z"/>
<path fill="#040404" opacity="1.000000" stroke="none" 
	d="
M667.077454,21.005054 
	C664.089294,32.929623 655.493042,40.536064 647.084045,48.739922 
	C640.415588,55.245735 633.248291,62.390659 634.048157,73.453194 
	C634.204285,75.612160 632.824463,78.668198 631.126221,80.029686 
	C625.765686,84.327225 620.028687,88.189865 614.234192,91.903847 
	C603.253540,98.941841 597.596130,111.724213 609.382385,124.118683 
	C613.961792,128.934418 618.000732,133.990021 616.306763,140.733124 
	C615.218384,145.065598 611.914429,148.818558 609.745178,152.906403 
	C601.030884,169.327942 585.807068,179.925369 573.644775,193.255798 
	C568.570007,198.818008 564.441345,204.723724 561.028625,211.551178 
	C556.766357,220.078232 551.926697,228.950150 545.203003,235.474701 
	C533.110046,247.209442 527.087952,261.641785 521.629578,276.884033 
	C514.974976,295.466705 508.237305,314.067230 500.378265,332.157288 
	C492.935059,349.290161 482.947571,365.113953 469.043030,377.929901 
	C463.597656,382.948975 462.466949,389.738098 460.291992,395.996796 
	C457.308594,404.582001 454.825684,413.462463 453.386810,422.418610 
	C452.491058,427.994080 453.578094,433.990143 454.368256,439.715607 
	C456.839081,457.618591 460.058807,475.429932 462.086914,493.378632 
	C463.701935,507.671814 464.689545,522.116089 464.652649,536.489929 
	C464.624023,547.627991 464.017944,559.150452 461.126831,569.812866 
	C455.553009,590.368896 451.755585,610.796936 453.617554,632.223022 
	C455.420654,652.972290 454.763458,673.698547 449.804596,694.103455 
	C449.139496,696.840271 448.630188,699.664124 448.486145,702.470154 
	C447.636200,719.026367 445.824066,735.632874 446.482574,752.136780 
	C447.052277,766.414795 450.315155,780.605835 452.683563,794.785889 
	C455.131531,809.442322 457.987122,824.030273 460.551514,838.667969 
	C461.245117,842.627136 460.475800,845.760925 455.268951,845.145325 
	C454.474731,845.051331 453.620148,845.273743 452.819214,845.460205 
	C444.607269,847.372559 436.422974,849.410522 428.184845,851.201355 
	C422.443359,852.449646 418.594391,854.915344 416.833893,861.238281 
	C412.058258,878.390381 407.336639,895.516296 406.457031,913.402283 
	C405.771637,927.339905 405.363556,941.291870 404.920380,955.240356 
	C404.565186,966.418701 397.406799,973.229370 386.076996,973.309204 
	C368.117188,973.435730 350.158295,973.703552 332.199860,973.969116 
	C330.382629,973.995972 328.512543,974.205383 326.766937,974.690063 
	C317.673340,977.214661 308.506104,978.012695 299.096893,976.833191 
	C296.379852,976.492554 293.516663,977.468628 290.708282,977.676758 
	C283.616791,978.202209 276.517303,978.948730 269.423279,978.925598 
	C267.079193,978.917969 264.509460,977.140320 262.460052,975.612488 
	C259.871185,973.682556 260.384827,971.361328 262.791992,969.385620 
	C266.709106,966.170654 271.012451,963.304443 274.403564,959.604248 
	C277.880951,955.810120 281.951263,954.522278 286.720825,954.006836 
	C289.662109,953.689026 292.525909,952.671448 295.466553,952.327698 
	C302.021576,951.561523 305.291626,946.010010 310.091614,942.684998 
	C316.313995,938.374451 322.349487,933.530273 329.145844,930.387207 
	C335.795959,927.311890 341.342346,923.462341 345.807587,917.785767 
	C353.758331,907.678040 360.649414,897.036316 363.240570,884.159424 
	C364.828064,876.270081 366.434509,868.384216 367.938141,860.478882 
	C368.144989,859.391479 368.244446,857.847900 367.652283,857.111938 
	C361.996155,850.081177 362.932617,841.342957 362.425446,833.452515 
	C360.910736,809.886108 360.445374,786.244934 359.954895,762.624939 
	C359.821594,756.204956 361.893158,750.136658 365.725647,744.649109 
	C371.236694,736.758179 369.020996,727.690979 368.820526,718.980408 
	C368.797913,717.997986 368.243591,717.007324 368.310425,716.046570 
	C368.796143,709.064026 367.037903,702.829651 363.188446,696.904907 
	C360.064850,692.097412 359.512451,686.984131 362.657867,681.462158 
	C367.625000,672.742126 368.093048,663.428955 365.306152,653.713989 
	C362.545593,644.090515 360.027863,634.359192 358.161163,624.531311 
	C356.998383,618.409302 357.413605,612.002808 356.778778,605.758728 
	C356.472168,602.743103 355.967682,599.481018 354.535980,596.893066 
	C348.653564,586.260071 345.716400,574.948242 345.673828,562.000916 
	C343.275696,563.708618 341.509125,565.430969 339.394470,566.366394 
	C336.008728,567.863892 332.457336,569.141174 328.848419,569.921326 
	C326.738953,570.377319 325.393250,570.311218 324.872192,573.091125 
	C324.045258,577.502686 322.288208,577.206177 318.228058,575.937622 
	C308.642303,572.942688 307.419678,565.804688 307.007751,557.410950 
	C306.700439,551.150330 305.459045,544.918213 304.375305,538.718628 
	C303.544159,533.964233 300.882019,531.961914 296.066467,533.068604 
	C290.887787,534.258789 286.251312,534.585266 281.867584,530.268921 
	C282.730225,533.981934 283.922852,537.653442 284.395050,541.415466 
	C285.955505,553.848450 287.102936,566.333557 288.690338,578.762695 
	C291.338898,599.500427 294.214447,620.209106 296.973419,640.932800 
	C297.695160,646.354065 298.585480,651.772949 298.867493,657.220459 
	C298.950806,658.829285 297.524261,661.662048 296.263702,662.005920 
	C288.921265,664.008789 281.451050,665.610596 273.943085,666.862854 
	C272.887726,667.038879 270.688812,664.773193 270.220764,663.264954 
	C268.514984,657.767944 267.368195,652.099976 265.921844,646.519531 
	C260.319489,624.903992 261.368408,602.818298 260.582123,580.789978 
	C260.070282,566.450134 256.744720,552.203186 254.544739,537.935486 
	C253.845764,533.402283 252.712097,528.936157 251.650009,523.826782 
	C249.601257,525.709900 247.969940,527.311096 246.230804,528.784973 
	C243.308228,531.261841 240.792419,532.153442 237.119247,529.083740 
	C234.171127,526.619995 230.156006,524.523193 225.656281,526.861694 
	C224.253830,527.590515 222.396683,527.804504 220.782425,527.702759 
	C213.995651,527.275208 211.110641,531.558105 207.833374,536.677917 
	C200.885391,547.532043 193.828995,552.035583 182.361176,544.137756 
	C180.292984,542.713379 177.461716,541.732971 174.971390,541.708557 
	C167.115555,541.631592 158.060257,532.380920 159.940979,524.615845 
	C160.543320,522.128845 161.547623,519.712097 162.619827,517.378906 
	C163.077774,516.382385 164.638809,515.810425 164.914185,514.826050 
	C166.447525,509.345795 170.067398,508.803223 175.369614,509.841980 
	C174.702164,508.957703 174.173950,507.906128 173.344757,507.216217 
	C167.792343,502.596344 161.882950,498.360718 156.670227,493.391144 
	C152.281296,489.206848 148.691971,484.186401 144.710373,479.569122 
	C144.191055,478.966919 143.510529,478.284821 142.790466,478.109894 
	C137.852356,476.910583 132.591873,476.523285 127.991074,474.567108 
	C120.426308,471.350616 112.486778,468.146423 106.150124,463.116730 
	C96.907394,455.780365 88.901741,446.874603 80.488419,438.517365 
	C79.390213,437.426453 78.442802,435.647278 78.373787,434.143341 
	C77.906395,423.958282 75.975014,413.835327 80.434418,403.736572 
	C84.013588,395.631226 87.586426,386.957092 88.303284,378.298676 
	C89.177940,367.734344 88.405113,357.290680 78.778374,348.587158 
	C68.186562,339.011078 56.052177,332.625366 43.926033,325.874725 
	C34.429417,320.587891 26.747652,313.999420 22.660128,303.363861 
	C20.889668,298.757202 17.027571,294.818268 13.644292,290.992828 
	C3.057773,279.022736 -0.567814,265.211365 3.773593,250.015274 
	C5.969870,242.327744 12.107815,236.951324 19.550951,233.618683 
	C23.884546,231.678329 26.568087,228.850143 28.066788,224.049911 
	C29.232965,220.314743 31.677382,216.207230 34.787613,214.019058 
	C40.400208,210.070374 46.784332,207.079285 53.135658,204.365631 
	C57.839062,202.356049 63.059704,201.595596 67.945641,199.966019 
	C76.158249,197.226944 83.191437,199.113770 88.760086,205.453476 
	C92.249451,209.426010 94.947548,214.085770 98.102577,218.362015 
	C101.149330,222.491501 104.057243,226.775024 107.535339,230.517685 
	C110.140266,233.320801 108.991272,234.374298 105.015411,236.052475 
	C110.511391,246.559402 116.480919,256.666260 121.157234,267.339722 
	C124.667053,275.350677 126.697586,284.039886 129.022034,292.527008 
	C130.128250,296.566071 131.728943,299.570160 136.167068,300.415070 
	C140.460312,301.232422 143.280975,299.034393 145.299042,295.793701 
	C148.636154,290.434875 151.358597,284.678223 154.876801,279.450439 
	C161.447571,269.686859 168.132446,259.972443 175.335770,250.676102 
	C178.108368,247.097900 182.027893,243.889420 186.105942,241.930252 
	C205.263626,232.726639 216.199905,216.584702 223.566437,197.733932 
	C233.113022,173.304443 247.284363,152.126770 265.289886,133.184250 
	C282.493591,115.085243 299.091675,96.411873 316.121643,78.145386 
	C319.497284,74.524620 323.379395,71.251396 327.449615,68.425163 
	C342.136353,58.227180 350.804443,44.013496 355.108459,27.051451 
	C357.028015,19.486568 360.901398,13.558889 367.185211,9.386164 
	C369.191895,8.053617 372.945435,7.316861 374.899414,8.298546 
	C382.601532,12.168112 390.096985,16.538946 397.304413,21.278353 
	C404.657928,26.113817 404.934387,31.771833 398.814850,38.128281 
	C398.470978,38.485474 397.812012,38.785568 397.776794,39.157406 
	C397.056793,46.761826 391.047882,47.967930 385.369202,50.130009 
	C382.893250,51.072670 381.082611,53.963840 379.175873,56.149826 
	C376.744965,58.936741 374.726440,62.102299 372.167206,64.754402 
	C367.123413,69.981216 361.302887,74.544182 356.788116,80.171570 
	C352.318024,85.743240 353.435333,90.201286 358.748444,95.011086 
	C363.553162,99.360664 368.649139,103.447670 373.027985,108.193619 
	C378.601562,114.234390 378.195984,120.304291 372.400208,126.290794 
	C365.679260,133.232910 358.862549,140.083847 352.014771,146.901443 
	C326.997742,171.808197 306.195953,200.144165 286.007446,228.901535 
	C275.032043,244.535400 264.822876,260.760925 255.174332,277.249847 
	C250.347458,285.498688 247.397079,294.875854 243.888412,303.856171 
	C241.071960,311.064758 242.245560,316.528839 248.351639,321.234894 
	C253.285568,325.037567 258.843292,328.162415 264.455780,330.911102 
	C268.871521,333.073700 272.725555,335.060303 273.208435,340.650970 
	C273.306519,341.786407 274.645782,343.515961 275.689697,343.753143 
	C281.882629,345.160248 285.546661,348.932404 287.282013,354.887787 
	C288.230865,358.144073 290.182159,358.692871 292.864441,356.678040 
	C296.939270,353.617188 301.333252,352.162354 306.419464,350.835480 
	C311.998199,349.380066 317.619202,348.719208 323.160706,347.441559 
	C326.905090,346.578247 330.314362,344.162872 333.802856,342.308807 
	C340.956879,338.506531 348.088348,334.660095 355.181152,330.744995 
	C360.410095,327.858734 365.894135,325.272034 370.616730,321.696320 
	C373.159912,319.770813 374.974060,316.250946 376.000275,313.088074 
	C377.978699,306.990173 380.651581,301.816650 386.593903,298.648865 
	C388.381439,297.695953 389.642639,295.674103 391.010223,294.029846 
	C395.879181,288.175812 400.682495,282.267181 405.525574,276.391479 
	C408.909912,272.285522 412.424377,268.279877 415.638519,264.045593 
	C416.395111,263.048859 416.531067,261.262878 416.348846,259.921997 
	C414.887482,249.166092 416.994781,239.411530 423.930573,230.848175 
	C425.285461,229.175323 426.619110,227.365417 427.442810,225.400818 
	C434.993286,207.392532 448.200165,193.501846 460.377899,178.704559 
	C485.765320,147.856064 516.741638,122.546234 543.668701,93.243874 
	C550.393433,85.926010 558.098511,79.371201 566.017456,73.337769 
	C571.188660,69.397842 571.616882,63.738163 573.354797,58.665882 
	C575.006958,53.843983 578.969116,49.722462 578.166443,43.983727 
	C578.021851,42.949650 579.626038,41.457844 580.708740,40.500813 
	C586.495544,35.385483 593.407349,31.156092 597.968140,25.134375 
	C604.241760,16.851294 612.967224,13.554240 621.670593,9.617208 
	C627.361877,7.042708 632.948608,4.237292 638.791138,1.267652 
	C640.714355,1.000000 642.428711,1.000000 644.739380,1.370630 
	C647.450378,2.037890 649.585083,2.233899 651.676453,2.648209 
	C661.839966,4.661680 667.191284,11.072952 667.077454,21.005054 
M413.223297,821.995300 
	C405.531219,823.417603 397.839172,824.839905 389.134277,826.449463 
	C398.520081,829.335022 406.283722,826.472412 414.872345,823.263245 
	C414.960632,822.886353 415.048920,822.509521 415.137177,822.132629 
	C414.757294,822.086853 414.377441,822.041077 413.223297,821.995300 
M584.603210,86.927307 
	C580.565063,84.760422 574.346313,85.694016 573.501160,77.445068 
	C571.980896,80.146942 570.244324,81.870865 570.576965,82.966736 
	C571.055725,84.544090 572.826782,86.335396 574.424622,86.841621 
	C577.827332,87.919724 581.473633,88.229370 585.653625,89.190201 
	C588.645508,91.668526 585.661255,91.881012 584.432861,93.236176 
	C583.092590,94.714714 581.831299,97.130722 582.105835,98.893494 
	C582.280273,100.013214 585.301208,101.358841 587.073608,101.400101 
	C589.593201,101.458733 592.138428,100.411453 595.979431,99.540314 
	C592.564209,97.825554 590.300293,96.688873 587.861267,95.464264 
	C588.589966,93.323822 589.253967,91.373291 590.048340,89.039955 
	C588.191589,88.396042 586.660522,87.865059 584.603210,86.927307 
M415.199921,694.204407 
	C415.545776,694.264038 415.891663,694.323608 416.083191,695.160278 
	C414.947815,696.467590 413.812408,697.774902 412.840881,698.380005 
	C412.826630,698.065552 412.870819,697.498962 412.788116,697.479797 
	C412.407166,697.391479 411.808746,697.283630 411.613434,697.490173 
	C404.105682,705.430664 396.246063,713.083740 389.285248,721.481262 
	C384.149872,727.676636 380.104431,734.792542 375.753876,741.613342 
	C373.889313,744.536682 372.125580,747.620667 370.934113,750.859009 
	C367.106628,761.262207 367.344299,772.116760 368.206024,782.936218 
	C368.386139,785.197754 369.846100,787.357361 370.716248,789.563904 
	C371.764038,788.554749 371.897919,787.802856 371.744385,787.115234 
	C368.351257,771.915955 373.217407,758.738586 383.602478,748.254517 
	C397.930359,733.790161 409.398346,717.423279 419.730438,700.094299 
	C420.438385,698.906921 420.583984,697.384216 421.347931,695.474792 
	C425.021973,692.601135 420.046936,692.436340 420.113739,690.139954 
	C425.166412,682.876282 427.876404,675.745667 428.322052,668.302124 
	C420.213562,675.289307 417.387787,684.774353 414.170471,694.204651 
	C414.066223,694.288452 413.962006,694.372253 413.857788,694.456116 
	C414.149475,694.457947 414.441132,694.459778 415.199921,694.204407 
M47.085350,311.368286 
	C47.393265,311.471405 47.696129,311.599060 48.011887,311.664001 
	C48.119698,311.686188 48.370552,311.496643 48.369778,311.495056 
	C47.380974,309.475128 46.215260,307.525635 45.403282,305.438507 
	C43.278545,299.977020 38.816448,298.377258 33.572475,298.073730 
	C30.202148,297.878693 28.767532,299.623444 30.167759,302.707825 
	C33.959930,311.061157 40.752838,316.068420 49.287704,318.835693 
	C50.045277,319.081360 51.188370,318.137909 52.152405,317.746765 
	C51.623692,316.697876 51.350319,315.309723 50.508835,314.676453 
	C49.106709,313.621277 47.340656,313.049744 46.131744,311.770844 
	C46.247307,311.589294 46.362873,311.407715 47.085350,311.368286 
M269.124695,627.300903 
	C270.911163,637.005310 272.697632,646.709717 274.596161,657.022949 
	C279.208130,655.313599 282.424805,654.050598 285.690399,652.930115 
	C289.219849,651.719116 290.682404,649.402344 290.197357,645.671570 
	C289.188934,637.914490 288.629944,630.083374 287.274658,622.390381 
	C285.053589,609.782776 281.768402,597.343506 279.958679,584.686401 
	C275.790558,555.534729 272.223755,526.296753 268.471283,497.086365 
	C268.198792,494.965332 267.976746,492.687256 268.446198,490.646637 
	C270.897339,479.991547 269.585754,469.455780 267.949493,458.884277 
	C267.514587,456.074341 264.634888,452.032410 269.304993,450.987579 
	C271.287109,450.544128 274.123505,453.832520 276.534149,455.479736 
	C276.915344,455.740234 277.156342,456.265045 277.362823,456.713409 
	C281.529358,465.760864 286.031342,474.674255 289.745422,483.904480 
	C294.146240,494.841309 296.825928,506.587250 302.178375,516.991272 
	C307.326263,526.997620 310.464050,537.163574 311.660187,548.131958 
	C312.056763,551.768555 312.059113,555.446533 312.377991,559.093689 
	C312.564484,561.226868 312.668365,563.483521 313.472382,565.407593 
	C314.056458,566.805359 315.726746,567.749146 316.912781,568.895386 
	C317.705658,567.421631 319.290771,565.872864 319.159576,564.486450 
	C318.441467,556.898438 317.802216,549.242249 316.199188,541.811584 
	C313.223083,528.016235 308.436249,514.519470 306.533630,500.607117 
	C304.018799,482.217957 298.718109,464.870300 288.432007,449.830078 
	C280.069336,437.602264 279.636780,426.339233 285.392029,413.622314 
	C288.298370,407.200409 289.927124,400.439148 288.900482,393.227783 
	C287.529694,383.599030 287.916809,374.279938 296.223175,365.325470 
	C291.035217,363.575928 286.933807,362.254578 282.877014,360.808075 
	C278.464661,359.234833 275.982330,361.143005 274.298126,365.102051 
	C266.004944,384.596771 262.785339,404.971527 263.976349,426.031647 
	C264.236511,430.632080 263.301208,434.343231 260.670197,438.140564 
	C258.577759,441.160614 256.628357,444.863892 256.329987,448.408173 
	C255.862778,453.957458 254.721970,458.578003 250.667267,462.767487 
	C245.390198,468.219910 245.949844,475.396667 250.645660,481.198700 
	C252.406601,483.374420 253.484695,486.358124 254.099594,489.144379 
	C254.953156,493.011993 254.742188,497.111694 255.564774,500.989471 
	C264.332123,542.320190 270.127686,583.960815 269.124695,627.300903 
M130.194885,329.897949 
	C129.709412,348.277222 134.397614,365.854034 138.479584,383.529938 
	C141.521866,396.703735 145.223877,409.613342 152.260345,421.341919 
	C153.200806,422.909515 153.413437,424.913757 153.963120,426.715790 
	C151.926270,427.069763 149.865631,427.816315 147.857620,427.694580 
	C143.896606,427.454407 139.758743,425.696045 136.064453,426.430023 
	C128.747452,427.883759 123.059280,425.608704 117.572517,421.307098 
	C110.639114,415.871277 105.087662,409.365570 101.270531,401.394257 
	C99.822929,398.371246 98.233536,395.416107 96.304558,391.638397 
	C94.597748,410.999695 103.328819,424.823029 115.301300,437.126556 
	C116.709419,438.573608 119.535271,439.817902 121.372040,439.458771 
	C127.877655,438.186829 134.424316,436.668579 140.611755,434.333130 
	C149.738815,430.888184 153.698990,431.258209 160.801331,438.263672 
	C167.496658,444.867676 175.513367,449.056000 184.456238,451.602631 
	C185.835419,451.995361 187.351578,451.907074 187.988434,451.965881 
	C154.526581,413.629150 132.611069,370.905945 132.846664,318.317566 
	C131.990601,321.879486 131.134537,325.441406 130.194885,329.897949 
M436.825287,390.360168 
	C431.759888,391.775604 426.540039,392.794128 421.662170,394.691650 
	C412.384033,398.300995 403.418213,402.722534 394.107300,406.235870 
	C382.994781,410.429047 372.465973,408.726349 364.321045,399.871613 
	C357.051697,391.968811 350.776672,383.152679 344.038452,374.759186 
	C342.030731,372.258240 339.940704,369.823364 337.888367,367.358246 
	C337.499573,367.657104 337.110779,367.955963 336.721985,368.254822 
	C340.059235,380.755188 343.495239,393.314240 350.777161,404.197845 
	C356.554779,412.833191 363.987213,419.587799 375.438263,419.767700 
	C378.998871,419.823608 382.754761,420.006836 386.065948,421.155731 
	C398.603363,425.505890 409.961975,422.677948 420.860046,416.231812 
	C421.776031,415.689972 422.853149,414.633789 422.993378,413.688660 
	C424.409943,404.139526 431.371155,398.072021 436.825287,390.360168 
M350.839325,511.191711 
	C350.310730,514.646667 349.793793,518.103394 349.251190,521.556152 
	C347.953247,529.815369 350.052917,540.649170 352.837463,544.058716 
	C354.616730,531.837646 355.912109,518.396912 358.629578,505.250183 
	C363.787079,480.298615 360.626953,457.874207 341.427979,439.478912 
	C334.846924,433.173309 332.642334,425.714203 334.585999,416.766785 
	C337.169128,404.875763 332.196686,395.306610 324.594604,386.729858 
	C324.126221,386.201447 323.066193,386.197479 321.777618,385.790314 
	C325.933105,396.848724 327.216248,407.633301 326.785339,418.670105 
	C326.325439,430.450623 329.646057,440.868774 337.155914,450.158905 
	C348.236420,463.866089 354.343933,479.327087 352.134003,497.358521 
	C351.607391,501.655060 351.318665,505.980743 350.839325,511.191711 
M400.982849,453.483459 
	C389.736328,469.173004 383.184875,487.065460 376.662750,505.025360 
	C382.460785,500.474640 388.187714,495.942474 390.430054,488.575531 
	C392.444946,481.955994 396.537659,476.913208 401.749969,472.503510 
	C409.833282,465.664825 416.171692,457.500702 421.157043,448.036865 
	C425.231934,440.301392 430.699280,433.309906 435.327301,425.850891 
	C437.626434,422.145264 439.426941,418.130249 441.453064,414.255219 
	C440.889984,413.830536 440.326904,413.405884 439.763824,412.981201 
	C426.763916,426.074249 412.957764,438.357635 400.982849,453.483459 
M495.800690,244.308121 
	C506.487793,243.245239 515.363403,231.949387 515.624084,217.983521 
	C509.022766,226.845642 499.621857,227.410995 490.636932,228.462936 
	C477.026611,230.056396 467.317657,236.558701 460.406677,248.503448 
	C454.731567,258.312134 447.243164,266.885162 437.627991,273.315582 
	C436.422119,274.122009 435.594696,275.494293 434.591919,276.604401 
	C434.937744,276.966187 435.283569,277.327972 435.629395,277.689758 
	C442.650055,272.525299 449.973480,267.720123 456.623596,262.115936 
	C467.848663,252.656311 480.267853,246.179810 495.800690,244.308121 
M445.723022,319.180969 
	C431.090729,334.956024 419.901550,337.105743 401.246552,327.723267 
	C400.801849,327.499542 400.389465,327.092499 399.930176,327.037659 
	C398.005920,326.807739 396.069458,326.679535 394.137482,326.514099 
	C394.028259,326.991882 393.919006,327.469696 393.809784,327.947479 
	C401.824890,332.298889 409.805298,336.715942 417.869354,340.974701 
	C422.061157,343.188446 426.451324,342.848389 430.180206,340.144012 
	C443.592560,330.416626 454.615936,318.663086 460.303528,302.702423 
	C460.847198,301.176788 460.723236,299.413208 460.909210,297.760101 
	C460.587585,297.691437 460.265961,297.622803 459.944336,297.554138 
	C455.342590,304.569641 450.740845,311.585175 445.723022,319.180969 
M432.916199,541.400269 
	C437.826813,529.648743 441.288086,517.557007 441.151367,504.691254 
	C441.125549,502.262939 440.461090,499.841400 440.091339,497.416748 
	C439.621460,497.367096 439.151550,497.317444 438.681671,497.267822 
	C437.328766,530.775085 420.041107,556.592346 399.248962,581.049744 
	C401.662689,580.485901 404.003418,579.749329 405.566193,578.218567 
	C416.426819,567.579956 426.184998,556.075317 432.916199,541.400269 
M556.868591,97.714409 
	C556.474731,97.286713 556.080933,96.859016 555.462219,96.187141 
	C553.873352,113.815910 567.964294,138.280533 585.194458,137.157562 
	C572.815552,126.428474 564.123779,113.017776 556.868591,97.714409 
M396.148926,663.655945 
	C402.488403,653.627258 408.827911,643.598633 415.317566,633.332397 
	C414.563354,633.332397 414.174011,633.209839 414.013275,633.349792 
	C399.776825,645.747864 390.713287,661.837646 382.391815,678.356995 
	C379.939636,683.225037 380.725525,687.532288 383.572449,690.944885 
	C383.217865,679.490051 390.061493,672.162598 396.148926,663.655945 
M432.857697,794.157288 
	C432.170502,783.796936 431.483307,773.436523 430.796112,763.076172 
	C429.170135,774.530334 428.786072,785.836975 427.992798,797.114807 
	C427.307434,806.857849 424.611725,815.774292 415.630890,821.401184 
	C415.542725,821.456360 415.750702,821.984253 415.830841,822.289124 
	C422.288147,821.799622 426.573639,818.772827 428.254639,812.940857 
	C429.955505,807.039917 431.263824,801.025757 432.857697,794.157288 
M394.131439,616.580017 
	C394.513458,613.242065 394.895508,609.904175 395.277527,606.566223 
	C394.853668,606.464233 394.429779,606.362183 394.005920,606.260193 
	C387.036469,618.470886 378.078796,629.800110 377.558960,644.901733 
	C378.654846,643.888000 379.277679,642.621704 380.044067,641.449280 
	C383.010986,636.910522 386.194916,632.503418 388.961212,627.847107 
	C390.927124,624.538025 392.352844,620.907898 394.131439,616.580017 
M388.315826,548.654480 
	C384.518311,555.280457 380.720795,561.906494 376.648926,569.011169 
	C387.832428,566.947510 396.394806,549.531006 391.826447,539.711243 
	C390.786987,542.476807 389.747528,545.242432 388.315826,548.654480 
M528.480774,192.745728 
	C528.394775,192.887634 528.285950,193.021179 528.229858,193.174088 
	C528.184631,193.297531 528.203003,193.444305 528.193115,193.580719 
	C529.214050,192.984924 530.884460,192.594757 531.148926,191.759445 
	C532.685547,186.906845 534.219666,182.007858 535.107788,177.009628 
	C535.850464,172.830246 533.555969,170.120483 528.591431,168.975250 
	C531.014038,176.882156 531.878540,184.500473 528.480774,192.745728 
M393.488190,861.652649 
	C398.653351,862.353760 403.739410,862.729553 407.557281,857.668823 
	C401.955841,858.415955 396.354401,859.163086 390.752960,859.910217 
	C390.786896,860.214966 390.820862,860.519653 390.854797,860.824341 
	C391.488770,861.002197 392.122711,861.180054 393.488190,861.652649 
M99.351189,323.182861 
	C99.697662,322.897858 100.044128,322.612823 100.390602,322.327820 
	C100.303062,322.249603 100.213249,322.100555 100.128304,322.103302 
	C93.297775,322.322418 86.467636,322.553406 79.637459,322.783508 
	C79.669884,323.338837 79.702309,323.894165 79.734734,324.449524 
	C85.999962,324.092010 92.265190,323.734528 99.351189,323.182861 
z"/>
<path fill="#F3F3F3" opacity="1.000000" stroke="none" 
	d="
M667.308105,21.010113 
	C667.191284,11.072952 661.839966,4.661680 651.676453,2.648209 
	C649.585083,2.233899 647.450378,2.037890 645.167847,1.370630 
	C652.587646,1.000000 660.175293,1.000000 668.000000,1.000000 
	C668.000000,7.352017 668.000000,13.706966 668.000000,20.530956 
	C668.000000,21.000000 667.538757,21.015169 667.308105,21.010113 
z"/>
<path fill="#F8F8F8" opacity="1.000000" stroke="none" 
	d="
M269.105255,626.822998 
	C270.127686,583.960815 264.332123,542.320190 255.564774,500.989471 
	C254.742188,497.111694 254.953156,493.011993 254.099594,489.144379 
	C253.484695,486.358124 252.406601,483.374420 250.645660,481.198700 
	C245.949844,475.396667 245.390198,468.219910 250.667267,462.767487 
	C254.721970,458.578003 255.862778,453.957458 256.329987,448.408173 
	C256.628357,444.863892 258.577759,441.160614 260.670197,438.140564 
	C263.301208,434.343231 264.236511,430.632080 263.976349,426.031647 
	C262.785339,404.971527 266.004944,384.596771 274.298126,365.102051 
	C275.982330,361.143005 278.464661,359.234833 282.877014,360.808075 
	C286.933807,362.254578 291.035217,363.575928 296.223175,365.325470 
	C287.916809,374.279938 287.529694,383.599030 288.900482,393.227783 
	C289.927124,400.439148 288.298370,407.200409 285.392029,413.622314 
	C279.636780,426.339233 280.069336,437.602264 288.432007,449.830078 
	C298.718109,464.870300 304.018799,482.217957 306.533630,500.607117 
	C308.436249,514.519470 313.223083,528.016235 316.199188,541.811584 
	C317.802216,549.242249 318.441467,556.898438 319.159576,564.486450 
	C319.290771,565.872864 317.705658,567.421631 316.912781,568.895386 
	C315.726746,567.749146 314.056458,566.805359 313.472382,565.407593 
	C312.668365,563.483521 312.564484,561.226868 312.377991,559.093689 
	C312.059113,555.446533 312.056763,551.768555 311.660187,548.131958 
	C310.464050,537.163574 307.326263,526.997620 302.178375,516.991272 
	C296.825928,506.587250 294.146240,494.841309 289.745422,483.904480 
	C286.031342,474.674255 281.529358,465.760864 277.362823,456.713409 
	C277.156342,456.265045 276.915344,455.740234 276.534149,455.479736 
	C274.123505,453.832520 271.287109,450.544128 269.304993,450.987579 
	C264.634888,452.032410 267.514587,456.074341 267.949493,458.884277 
	C269.585754,469.455780 270.897339,479.991547 268.446198,490.646637 
	C267.976746,492.687256 268.198792,494.965332 268.471283,497.086365 
	C272.223755,526.296753 275.790558,555.534729 279.958679,584.686401 
	C281.768402,597.343506 285.053589,609.782776 287.274658,622.390381 
	C288.629944,630.083374 289.188934,637.914490 290.197357,645.671570 
	C290.682404,649.402344 289.219849,651.719116 285.690399,652.930115 
	C282.424805,654.050598 279.208130,655.313599 274.596161,657.022949 
	C272.697632,646.709717 270.911163,637.005310 269.105255,626.822998 
z"/>
<path fill="#F2F2F2" opacity="1.000000" stroke="none" 
	d="
M130.236679,329.450623 
	C131.134537,325.441406 131.990601,321.879486 132.846664,318.317566 
	C132.611069,370.905945 154.526581,413.629150 187.988434,451.965881 
	C187.351578,451.907074 185.835419,451.995361 184.456238,451.602631 
	C175.513367,449.056000 167.496658,444.867676 160.801331,438.263672 
	C153.698990,431.258209 149.738815,430.888184 140.611755,434.333130 
	C134.424316,436.668579 127.877655,438.186829 121.372040,439.458771 
	C119.535271,439.817902 116.709419,438.573608 115.301300,437.126556 
	C103.328819,424.823029 94.597748,410.999695 96.304558,391.638397 
	C98.233536,395.416107 99.822929,398.371246 101.270531,401.394257 
	C105.087662,409.365570 110.639114,415.871277 117.572517,421.307098 
	C123.059280,425.608704 128.747452,427.883759 136.064453,426.430023 
	C139.758743,425.696045 143.896606,427.454407 147.857620,427.694580 
	C149.865631,427.816315 151.926270,427.069763 153.963120,426.715790 
	C153.413437,424.913757 153.200806,422.909515 152.260345,421.341919 
	C145.223877,409.613342 141.521866,396.703735 138.479584,383.529938 
	C134.397614,365.854034 129.709412,348.277222 130.236679,329.450623 
z"/>
<path fill="#F6F6F6" opacity="1.000000" stroke="none" 
	d="
M436.870270,390.736359 
	C431.371155,398.072021 424.409943,404.139526 422.993378,413.688660 
	C422.853149,414.633789 421.776031,415.689972 420.860046,416.231812 
	C409.961975,422.677948 398.603363,425.505890 386.065948,421.155731 
	C382.754761,420.006836 378.998871,419.823608 375.438263,419.767700 
	C363.987213,419.587799 356.554779,412.833191 350.777161,404.197845 
	C343.495239,393.314240 340.059235,380.755188 336.721985,368.254822 
	C337.110779,367.955963 337.499573,367.657104 337.888367,367.358246 
	C339.940704,369.823364 342.030731,372.258240 344.038452,374.759186 
	C350.776672,383.152679 357.051697,391.968811 364.321045,399.871613 
	C372.465973,408.726349 382.994781,410.429047 394.107300,406.235870 
	C403.418213,402.722534 412.384033,398.300995 421.662170,394.691650 
	C426.540039,392.794128 431.759888,391.775604 436.870270,390.736359 
z"/>
<path fill="#F2F2F2" opacity="1.000000" stroke="none" 
	d="
M350.879913,510.742371 
	C351.318665,505.980743 351.607391,501.655060 352.134003,497.358521 
	C354.343933,479.327087 348.236420,463.866089 337.155914,450.158905 
	C329.646057,440.868774 326.325439,430.450623 326.785339,418.670105 
	C327.216248,407.633301 325.933105,396.848724 321.777618,385.790314 
	C323.066193,386.197479 324.126221,386.201447 324.594604,386.729858 
	C332.196686,395.306610 337.169128,404.875763 334.585999,416.766785 
	C332.642334,425.714203 334.846924,433.173309 341.427979,439.478912 
	C360.626953,457.874207 363.787079,480.298615 358.629578,505.250183 
	C355.912109,518.396912 354.616730,531.837646 352.837463,544.058716 
	C350.052917,540.649170 347.953247,529.815369 349.251190,521.556152 
	C349.793793,518.103394 350.310730,514.646667 350.879913,510.742371 
z"/>
<path fill="#F3F3F3" opacity="1.000000" stroke="none" 
	d="
M401.204346,453.204163 
	C412.957764,438.357635 426.763916,426.074249 439.763824,412.981201 
	C440.326904,413.405884 440.889984,413.830536 441.453064,414.255219 
	C439.426941,418.130249 437.626434,422.145264 435.327301,425.850891 
	C430.699280,433.309906 425.231934,440.301392 421.157043,448.036865 
	C416.171692,457.500702 409.833282,465.664825 401.749969,472.503510 
	C396.537659,476.913208 392.444946,481.955994 390.430054,488.575531 
	C388.187714,495.942474 382.460785,500.474640 376.662750,505.025360 
	C383.184875,487.065460 389.736328,469.173004 401.204346,453.204163 
z"/>
<path fill="#F5F5F5" opacity="1.000000" stroke="none" 
	d="
M495.379944,244.365005 
	C480.267853,246.179810 467.848663,252.656311 456.623596,262.115936 
	C449.973480,267.720123 442.650055,272.525299 435.629395,277.689758 
	C435.283569,277.327972 434.937744,276.966187 434.591919,276.604401 
	C435.594696,275.494293 436.422119,274.122009 437.627991,273.315582 
	C447.243164,266.885162 454.731567,258.312134 460.406677,248.503448 
	C467.317657,236.558701 477.026611,230.056396 490.636932,228.462936 
	C499.621857,227.410995 509.022766,226.845642 515.624084,217.983521 
	C515.363403,231.949387 506.487793,243.245239 495.379944,244.365005 
z"/>
<path fill="#ECECEC" opacity="1.000000" stroke="none" 
	d="
M420.991150,696.017456 
	C420.583984,697.384216 420.438385,698.906921 419.730438,700.094299 
	C409.398346,717.423279 397.930359,733.790161 383.602478,748.254517 
	C373.217407,758.738586 368.351257,771.915955 371.744385,787.115234 
	C371.897919,787.802856 371.764038,788.554749 370.716248,789.563904 
	C369.846100,787.357361 368.386139,785.197754 368.206024,782.936218 
	C367.344299,772.116760 367.106628,761.262207 370.934113,750.859009 
	C372.125580,747.620667 373.889313,744.536682 375.753876,741.613342 
	C380.104431,734.792542 384.149872,727.676636 389.285248,721.481262 
	C396.246063,713.083740 404.105682,705.430664 411.613434,697.490173 
	C411.808746,697.283630 412.407166,697.391479 412.788116,697.479797 
	C412.870819,697.498962 412.826630,698.065552 412.492676,698.925049 
	C411.346802,701.192932 410.549103,702.915710 409.751404,704.638489 
	C412.077881,704.032349 413.459625,702.733215 414.869049,701.464783 
	C416.899261,699.637390 418.949493,697.832153 420.991150,696.017456 
M385.434448,740.015381 
	C391.833221,732.168213 398.231995,724.321045 404.630768,716.473877 
	C404.422211,716.121765 404.213684,715.769714 404.005127,715.417603 
	C401.589417,716.822144 398.546661,717.708130 396.875946,719.728699 
	C391.926392,725.714661 387.418457,732.078003 382.942535,738.437866 
	C380.882751,741.364624 379.300171,744.627258 377.432556,747.856323 
	C382.743835,748.622620 383.005188,743.600769 385.434448,740.015381 
z"/>
<path fill="#EBEBEB" opacity="1.000000" stroke="none" 
	d="
M445.931061,318.890808 
	C450.740845,311.585175 455.342590,304.569641 459.944336,297.554138 
	C460.265961,297.622803 460.587585,297.691437 460.909210,297.760101 
	C460.723236,299.413208 460.847198,301.176788 460.303528,302.702423 
	C454.615936,318.663086 443.592560,330.416626 430.180206,340.144012 
	C426.451324,342.848389 422.061157,343.188446 417.869354,340.974701 
	C409.805298,336.715942 401.824890,332.298889 393.809784,327.947479 
	C393.919006,327.469696 394.028259,326.991882 394.137482,326.514099 
	C396.069458,326.679535 398.005920,326.807739 399.930176,327.037659 
	C400.389465,327.092499 400.801849,327.499542 401.246552,327.723267 
	C419.901550,337.105743 431.090729,334.956024 445.931061,318.890808 
z"/>
<path fill="#EBEBEB" opacity="1.000000" stroke="none" 
	d="
M432.754028,541.744019 
	C426.184998,556.075317 416.426819,567.579956 405.566193,578.218567 
	C404.003418,579.749329 401.662689,580.485901 399.248962,581.049744 
	C420.041107,556.592346 437.328766,530.775085 438.681671,497.267822 
	C439.151550,497.317444 439.621460,497.367096 440.091339,497.416748 
	C440.461090,499.841400 441.125549,502.262939 441.151367,504.691254 
	C441.288086,517.557007 437.826813,529.648743 432.754028,541.744019 
z"/>
<path fill="#EBEBEB" opacity="1.000000" stroke="none" 
	d="
M556.955261,98.075302 
	C564.123779,113.017776 572.815552,126.428474 585.197510,137.155304 
	C567.964294,138.280533 553.873352,113.815910 555.462219,96.187141 
	C556.080933,96.859016 556.474731,97.286713 556.955261,98.075302 
z"/>
<path fill="#E6E6E6" opacity="1.000000" stroke="none" 
	d="
M395.957062,663.959717 
	C390.061493,672.162598 383.217865,679.490051 383.572449,690.944885 
	C380.725525,687.532288 379.939636,683.225037 382.391815,678.356995 
	C390.713287,661.837646 399.776825,645.747864 414.013275,633.349792 
	C414.174011,633.209839 414.563354,633.332397 415.317566,633.332397 
	C408.827911,643.598633 402.488403,653.627258 395.957062,663.959717 
z"/>
<path fill="#DEDEDE" opacity="1.000000" stroke="none" 
	d="
M432.800903,794.609253 
	C431.263824,801.025757 429.955505,807.039917 428.254639,812.940857 
	C426.573639,818.772827 422.288147,821.799622 415.825623,822.290283 
	C415.750702,821.984253 415.542725,821.456360 415.630890,821.401184 
	C424.611725,815.774292 427.307434,806.857849 427.992798,797.114807 
	C428.786072,785.836975 429.170135,774.530334 430.796112,763.076172 
	C431.483307,773.436523 432.170502,783.796936 432.800903,794.609253 
z"/>
<path fill="#E7E7E7" opacity="1.000000" stroke="none" 
	d="
M45.727848,312.274536 
	C47.340656,313.049744 49.106709,313.621277 50.508835,314.676453 
	C51.350319,315.309723 51.623692,316.697876 52.152405,317.746765 
	C51.188370,318.137909 50.045277,319.081360 49.287704,318.835693 
	C40.752838,316.068420 33.959930,311.061157 30.167759,302.707825 
	C28.767532,299.623444 30.202148,297.878693 33.572475,298.073730 
	C38.816448,298.377258 43.278545,299.977020 45.403282,305.438507 
	C46.215260,307.525635 47.380974,309.475128 48.369778,311.495056 
	C48.370552,311.496643 48.119698,311.686188 48.011887,311.664001 
	C47.696129,311.599060 47.393265,311.471405 46.632610,311.141296 
	C45.952343,310.715088 45.687374,310.615356 45.129539,310.329224 
	C44.165939,309.658508 43.457756,309.273621 42.749573,308.888702 
	C42.583786,309.130859 42.417995,309.372986 42.252205,309.615112 
	C43.000195,310.314758 43.748184,311.014374 44.668716,311.871552 
	C45.107216,312.217743 45.402744,312.299561 45.727848,312.274536 
M42.040554,309.205017 
	C41.895531,308.413574 41.750507,307.622101 41.605480,306.830658 
	C41.184025,306.983673 40.762566,307.136719 40.341106,307.289764 
	C40.603428,307.843292 40.865749,308.396790 42.040554,309.205017 
z"/>
<path fill="#EBEBEB" opacity="1.000000" stroke="none" 
	d="
M394.075562,617.000549 
	C392.352844,620.907898 390.927124,624.538025 388.961212,627.847107 
	C386.194916,632.503418 383.010986,636.910522 380.044067,641.449280 
	C379.277679,642.621704 378.654846,643.888000 377.558960,644.901733 
	C378.078796,629.800110 387.036469,618.470886 394.005920,606.260193 
	C394.429779,606.362183 394.853668,606.464233 395.277527,606.566223 
	C394.895508,609.904175 394.513458,613.242065 394.075562,617.000549 
z"/>
<path fill="#E7E7E7" opacity="1.000000" stroke="none" 
	d="
M388.511932,548.331238 
	C389.747528,545.242432 390.786987,542.476807 391.825684,539.710938 
	C396.394806,549.531006 387.832428,566.947510 376.648926,569.011169 
	C380.720795,561.906494 384.518311,555.280457 388.511932,548.331238 
z"/>
<path fill="#E6E6E6" opacity="1.000000" stroke="none" 
	d="
M414.699463,694.332031 
	C417.387787,684.774353 420.213562,675.289307 428.322052,668.302124 
	C427.876404,675.745667 425.166412,682.876282 419.720032,690.582397 
	C418.296722,692.144287 417.267120,693.263733 416.237518,694.383179 
	C415.891663,694.323608 415.545776,694.264038 414.918335,694.311157 
	C414.636749,694.417969 414.699463,694.332031 414.699463,694.332031 
z"/>
<path fill="#E6E6E6" opacity="1.000000" stroke="none" 
	d="
M585.129395,87.334076 
	C586.660522,87.865059 588.191589,88.396042 590.048340,89.039955 
	C589.253967,91.373291 588.589966,93.323822 587.861267,95.464264 
	C590.300293,96.688873 592.564209,97.825554 595.979431,99.540314 
	C592.138428,100.411453 589.593201,101.458733 587.073608,101.400101 
	C585.301208,101.358841 582.280273,100.013214 582.105835,98.893494 
	C581.831299,97.130722 583.092590,94.714714 584.432861,93.236176 
	C585.661255,91.881012 588.645508,91.668526 585.370850,88.642586 
	C585.101807,87.841347 585.115601,87.587715 585.129395,87.334076 
z"/>
<path fill="#E3E3E3" opacity="1.000000" stroke="none" 
	d="
M528.648071,192.388641 
	C531.878540,184.500473 531.014038,176.882156 528.591431,168.975250 
	C533.555969,170.120483 535.850464,172.830246 535.107788,177.009628 
	C534.219666,182.007858 532.685547,186.906845 531.148926,191.759445 
	C530.884460,192.594757 529.214050,192.984924 528.193115,193.580719 
	C528.203003,193.444305 528.184631,193.297531 528.229858,193.174088 
	C528.285950,193.021179 528.394775,192.887634 528.648071,192.388641 
z"/>
<path fill="#D2D2D2" opacity="1.000000" stroke="none" 
	d="
M584.866333,87.130692 
	C585.115601,87.587715 585.101807,87.841347 585.054077,88.474457 
	C581.473633,88.229370 577.827332,87.919724 574.424622,86.841621 
	C572.826782,86.335396 571.055725,84.544090 570.576965,82.966736 
	C570.244324,81.870865 571.980896,80.146942 573.501160,77.445068 
	C574.346313,85.694016 580.565063,84.760422 584.866333,87.130692 
z"/>
<path fill="#A0A0A0" opacity="1.000000" stroke="none" 
	d="
M414.049225,823.627441 
	C406.283722,826.472412 398.520081,829.335022 389.134277,826.449463 
	C397.839172,824.839905 405.531219,823.417603 413.616974,822.403564 
	C414.023499,823.083679 414.036377,823.355530 414.049225,823.627441 
z"/>
<path fill="#D6D6D6" opacity="1.000000" stroke="none" 
	d="
M393.122437,861.505249 
	C392.122711,861.180054 391.488770,861.002197 390.854797,860.824341 
	C390.820862,860.519653 390.786896,860.214966 390.752960,859.910217 
	C396.354401,859.163086 401.955841,858.415955 407.557281,857.668823 
	C403.739410,862.729553 398.653351,862.353760 393.122437,861.505249 
z"/>
<path fill="#1A1A1A" opacity="1.000000" stroke="none" 
	d="
M416.160339,694.771729 
	C417.267120,693.263733 418.296722,692.144287 419.600037,690.896240 
	C420.046936,692.436340 425.021973,692.601135 421.169556,695.746155 
	C418.949493,697.832153 416.899261,699.637390 414.869049,701.464783 
	C413.459625,702.733215 412.077881,704.032349 409.751404,704.638489 
	C410.549103,702.915710 411.346802,701.192932 412.410767,699.276184 
	C413.812408,697.774902 414.947815,696.467590 416.160339,694.771729 
z"/>
<path fill="#BBBBBB" opacity="1.000000" stroke="none" 
	d="
M98.940804,323.279938 
	C92.265190,323.734528 85.999962,324.092010 79.734734,324.449524 
	C79.702309,323.894165 79.669884,323.338837 79.637459,322.783508 
	C86.467636,322.553406 93.297775,322.322418 100.128304,322.103302 
	C100.213249,322.100555 100.303062,322.249603 100.390602,322.327820 
	C100.044128,322.612823 99.697662,322.897858 98.940804,323.279938 
z"/>
<path fill="#1A1A1A" opacity="1.000000" stroke="none" 
	d="
M414.434967,694.268311 
	C414.699463,694.332031 414.636749,694.417969 414.684784,694.439819 
	C414.441132,694.459778 414.149475,694.457947 413.857788,694.456116 
	C413.962006,694.372253 414.066223,694.288452 414.434967,694.268311 
z"/>
<path fill="#DEDEDE" opacity="1.000000" stroke="none" 
	d="
M414.460785,823.445312 
	C414.036377,823.355530 414.023499,823.083679 414.004089,822.403503 
	C414.377441,822.041077 414.757294,822.086853 415.137177,822.132629 
	C415.048920,822.509521 414.960632,822.886353 414.460785,823.445312 
z"/>
<path fill="#1F1F1F" opacity="1.000000" stroke="none" 
	d="
M385.257721,740.336060 
	C383.005188,743.600769 382.743835,748.622620 377.432556,747.856323 
	C379.300171,744.627258 380.882751,741.364624 382.942535,738.437866 
	C387.418457,732.078003 391.926392,725.714661 396.875946,719.728699 
	C398.546661,717.708130 401.589417,716.822144 404.005127,715.417603 
	C404.213684,715.769714 404.422211,716.121765 404.630768,716.473877 
	C398.231995,724.321045 391.833221,732.168213 385.257721,740.336060 
z"/>
<path fill="#040404" opacity="1.000000" stroke="none" 
	d="
M44.496174,311.714020 
	C43.748184,311.014374 43.000195,310.314758 42.252205,309.615112 
	C42.417995,309.372986 42.583786,309.130859 42.749573,308.888702 
	C43.457756,309.273621 44.165939,309.658508 44.897087,310.595703 
	C44.778763,311.336670 44.637470,311.525330 44.496174,311.714020 
z"/>
<path fill="#040404" opacity="1.000000" stroke="none" 
	d="
M41.584312,309.077667 
	C40.865749,308.396790 40.603428,307.843292 40.341106,307.289764 
	C40.762566,307.136719 41.184025,306.983673 41.605484,306.830658 
	C41.750507,307.622101 41.895531,308.413574 41.584312,309.077667 
z"/>
<path fill="#040404" opacity="1.000000" stroke="none" 
	d="
M45.929794,312.022705 
	C45.402744,312.299561 45.107216,312.217743 44.668716,311.871552 
	C44.637470,311.525330 44.778763,311.336670 45.152504,310.881531 
	C45.687374,310.615356 45.952343,310.715088 46.329155,311.070251 
	C46.362873,311.407715 46.247307,311.589294 45.929794,312.022705 
z"/>
</svg>