<svg version="1.1" id="Layer_1" xmlns="http://www.w3.org/2000/svg" xmlns:xlink="http://www.w3.org/1999/xlink" x="0px" y="0px"
	 width="100%" viewBox="0 0 608 608" enable-background="new 0 0 608 608" xml:space="preserve">
<path fill="#000000" opacity="1.000000" stroke="none" 
	d="
M333.972290,272.160950 
	C336.324249,267.654785 339.206329,264.019928 342.528717,260.698792 
	C370.450043,232.787933 398.649506,205.147079 426.163177,176.839767 
	C443.687866,158.809616 472.369629,159.021667 490.102814,177.724426 
	C514.617859,203.579941 540.297241,228.333374 565.540222,253.496277 
	C584.140686,272.037720 584.386536,297.468079 565.864014,316.067993 
	C538.358826,343.688019 510.489929,370.952148 483.312683,398.889984 
	C469.677856,412.906372 453.277313,414.411346 435.443756,412.883087 
	C421.241852,411.666077 407.622803,407.868530 394.055206,403.975769 
	C380.816528,400.177368 370.242432,404.457916 360.740631,413.249084 
	C358.909149,414.943665 357.272064,416.846619 355.490631,418.597839 
	C354.665924,419.408447 353.662598,420.772400 352.820862,420.714447 
	C345.970886,420.242981 343.286591,425.949066 339.474854,429.695587 
	C323.319427,445.574615 307.356323,461.649475 291.350128,477.679932 
	C289.426819,479.606140 287.675323,481.202942 287.716278,484.740967 
	C287.755066,488.091797 284.359100,490.732971 281.151337,492.276672 
	C278.207336,493.693359 276.130768,491.639008 274.210999,489.697723 
	C267.185364,482.593292 260.137695,475.510406 253.152893,468.366089 
	C251.326553,466.498047 248.637222,464.436188 250.426102,461.578674 
	C252.289444,458.602264 254.329224,454.888000 258.471466,454.936554 
	C260.881134,454.964813 262.170929,453.972168 263.573334,452.567383 
	C282.050049,434.060425 300.526154,415.552826 318.984528,397.027618 
	C319.798981,396.210266 321.088776,395.203400 321.062103,394.317749 
	C320.877228,388.176025 325.855652,385.588379 329.299469,382.021790 
	C338.587708,372.402313 342.279663,361.338837 338.594971,348.188171 
	C335.140747,335.860168 331.188568,323.577942 330.256226,310.762268 
	C329.319733,297.888855 327.608185,284.778870 333.972290,272.160950 
M514.988464,211.511597 
	C504.725128,201.274002 494.488068,191.009903 484.192322,180.805008 
	C468.714233,165.463501 446.535156,165.478256 431.095612,180.883804 
	C403.615051,208.303864 376.312103,235.903564 348.662811,263.152069 
	C337.895996,273.762817 334.800385,286.339508 335.638580,300.904938 
	C336.536926,316.515869 340.272217,331.465729 344.511871,346.348541 
	C348.203094,359.306152 346.243103,371.037598 337.786804,381.606110 
	C337.370789,382.126068 336.991241,382.675262 336.596161,383.211914 
	C335.802094,384.290436 334.721924,385.457397 336.132874,386.683716 
	C337.904968,388.223816 338.744232,386.382141 339.736755,385.399872 
	C340.205200,384.936310 340.529388,384.330383 340.947144,383.811707 
	C351.337738,370.910339 352.077576,356.726959 347.264465,341.415009 
	C342.205994,325.322296 338.986511,308.899139 339.547638,291.821198 
	C339.843292,282.823547 342.515320,275.091309 348.769409,268.802826 
	C377.321381,240.093918 405.814880,211.323273 434.673950,182.924988 
	C448.589996,169.231079 467.697144,169.847961 481.516693,183.642166 
	C507.342773,209.420914 533.133850,235.234909 558.895142,261.078400 
	C573.021545,275.249878 573.137634,294.574738 559.099670,308.668091 
	C530.877319,337.001923 502.568542,365.249603 474.295258,393.532654 
	C469.572205,398.257355 464.005646,401.352966 457.372437,402.528442 
	C450.407898,403.762634 443.436798,403.411591 436.457184,402.847137 
	C423.270416,401.780701 410.570221,398.358398 397.987366,394.555786 
	C383.663605,390.227051 370.676361,392.452362 358.929749,401.683899 
	C357.409698,402.878510 354.106598,403.856232 356.005981,406.418854 
	C357.718536,408.729431 359.535156,405.946960 360.919006,404.904602 
	C369.516022,398.429169 378.830200,394.614563 389.793304,396.800232 
	C394.358582,397.710449 398.903809,398.793976 403.376831,400.081207 
	C418.650146,404.476562 434.090210,407.253540 450.103668,406.974213 
	C460.875641,406.786377 469.886627,403.368164 477.475464,395.769592 
	C505.850525,367.358246 534.356628,339.077301 562.650574,310.585602 
	C577.239685,295.894592 577.127563,273.808838 562.520386,259.004517 
	C546.955383,243.229385 531.174744,227.667099 514.988464,211.511597 
M284.679199,454.610443 
	C287.154419,458.668915 288.453949,458.860138 292.144928,455.200653 
	C302.187683,445.243713 312.141357,435.196960 322.139282,425.194763 
	C323.815796,423.517517 325.970001,421.655090 323.878937,419.302094 
	C321.618927,416.759033 319.371124,418.527985 317.499603,420.392944 
	C309.249329,428.614380 300.964355,436.801971 292.793549,445.101837 
	C290.011749,447.927551 286.735260,450.339600 284.679199,454.610443 
z"/>
<path fill="#000000" opacity="1.000000" stroke="none" 
	d="
M175.762817,413.144501 
	C169.625183,413.133331 163.928146,413.482452 158.306885,412.981354 
	C146.801407,411.955841 137.681183,406.099548 129.702591,398.046600 
	C109.900970,378.060516 90.007843,358.165100 70.151428,338.233307 
	C62.279583,330.331604 54.253525,322.576599 46.567387,314.498230 
	C29.924623,297.006134 30.669189,270.824982 47.773590,253.865143 
	C73.320030,228.534607 98.733238,203.068710 124.082420,177.540573 
	C143.230804,158.257019 169.108307,158.193344 188.319260,177.475601 
	C215.956009,205.214966 243.670868,232.876511 271.358948,260.564728 
	C280.019775,269.225586 283.969543,279.564636 284.508698,291.905975 
	C285.376709,311.775208 280.286041,330.494415 275.252258,349.304260 
	C271.748291,362.397552 275.815735,373.140594 285.110291,382.451630 
	C288.377716,385.724915 292.647522,388.090271 292.753143,394.015839 
	C292.807281,397.053009 296.875732,399.012177 299.295715,401.254669 
	C301.889618,403.658234 301.723511,405.424805 299.256470,407.810669 
	C292.429199,414.413147 285.718292,421.139954 279.100037,427.952271 
	C276.933899,430.181976 275.287720,430.521484 272.867798,428.266541 
	C269.379486,425.016022 266.829254,420.201233 260.865448,420.585632 
	C260.061371,420.637421 259.146332,419.139557 258.300476,418.340515 
	C255.397369,415.598022 252.643021,412.677551 249.577209,410.131714 
	C240.888748,402.916779 231.145645,400.825562 220.125793,403.922791 
	C205.715958,407.972809 191.280701,412.033997 175.762817,413.144501 
M81.618248,340.881317 
	C99.748947,359.037537 117.909729,377.163849 135.995956,395.364258 
	C143.537460,402.953369 152.470184,406.559204 163.238007,406.965668 
	C181.877701,407.669373 199.567841,403.280304 217.238770,398.329315 
	C224.197372,396.379700 231.197784,395.420044 238.409393,397.377380 
	C244.352493,398.990387 249.319077,402.219543 254.151215,405.812561 
	C255.314102,406.677185 256.645477,407.971069 257.998047,406.183594 
	C259.171356,404.632996 257.768250,403.698059 256.760193,402.924438 
	C246.776840,395.263031 236.042099,390.321655 222.954803,393.104218 
	C207.681580,396.351562 192.846970,401.417877 177.134003,402.917847 
	C160.668457,404.489655 145.815231,402.636139 134.839783,388.597809 
	C134.330811,387.946808 133.660995,387.422363 133.072052,386.832977 
	C106.571678,360.312500 79.971413,333.890808 53.617474,307.225616 
	C41.621952,295.088440 41.327187,275.155762 53.004974,263.334839 
	C79.819412,236.191681 106.766937,209.176819 133.919693,182.372498 
	C146.712616,169.743744 166.063980,169.849777 178.901291,182.549927 
	C207.802277,211.142151 236.469925,239.970703 265.157501,268.777771 
	C271.299011,274.944885 273.955353,282.573639 274.377045,291.315430 
	C275.259216,309.603943 270.953033,326.985992 266.095123,344.344086 
	C264.212952,351.069244 262.891388,357.881561 264.249908,364.992828 
	C265.766968,372.933990 269.594025,379.626007 274.592407,385.776154 
	C275.417297,386.791107 276.337372,388.102356 277.843903,386.749542 
	C279.226227,385.508209 278.290680,384.350616 277.493958,383.250244 
	C276.809998,382.305603 276.131958,381.356262 275.430603,380.424622 
	C267.907043,370.430969 265.938202,359.457184 269.223572,347.373810 
	C273.106445,333.092804 276.991455,318.833252 278.313202,303.967621 
	C279.743011,287.887085 276.696167,274.025604 264.429352,262.144623 
	C237.501816,236.064117 210.946808,209.576614 184.900085,182.617233 
	C168.719345,165.869537 144.467056,164.911407 127.292526,183.009888 
	C102.987152,208.622818 77.537537,233.151810 52.510189,258.076996 
	C36.816704,273.706421 36.405354,295.275146 51.804394,311.022797 
	C61.472542,320.909790 71.337776,330.604126 81.618248,340.881317 
z"/>
<path fill="#000000" opacity="1.000000" stroke="none" 
	d="
M336.907043,135.153275 
	C349.913391,151.816864 348.980713,173.118134 334.850342,187.787170 
	C321.445648,201.702866 299.559692,203.190964 283.258881,191.294998 
	C271.120789,182.436905 265.281494,165.289200 269.290588,150.275497 
	C273.450836,134.695450 286.693726,123.250603 302.251373,121.616127 
	C316.021210,120.169487 327.411957,124.716682 336.907043,135.153275 
M312.217590,154.274292 
	C306.354919,150.950256 300.739807,152.593063 299.524292,158.142624 
	C298.759094,161.636108 299.469849,164.864929 302.903259,166.745667 
	C306.308380,168.610886 309.821381,168.497452 312.524567,165.619888 
	C315.672821,162.268616 315.644135,158.473557 312.217590,154.274292 
M283.289825,149.724640 
	C285.447601,146.898727 287.456085,143.957062 286.126129,140.182053 
	C285.570557,138.605011 283.949615,137.919312 282.392059,138.517471 
	C278.636749,139.959610 276.919983,143.100845 275.944153,146.816727 
	C275.436981,148.748062 275.413971,150.591934 277.091797,151.804932 
	C279.481598,153.532654 281.022736,151.300598 283.289825,149.724640 
M335.335754,141.150940 
	C332.945953,139.304474 330.520325,135.912643 327.758209,140.425613 
	C326.243591,142.900299 329.118500,148.905289 332.515930,151.141708 
	C333.871979,152.034363 335.521851,153.274475 336.986084,151.658554 
	C339.831512,148.518295 337.860291,145.488190 336.367920,142.525787 
	C336.220520,142.233246 335.985535,141.984802 335.335754,141.150940 
M285.935150,175.504425 
	C284.556366,172.033890 282.838257,168.866425 278.630768,168.327118 
	C277.337616,168.161377 276.433258,168.957993 276.075195,170.206528 
	C274.988037,173.997269 276.754150,176.956451 279.130188,179.559723 
	C280.525482,181.088501 282.203796,183.002960 284.614044,181.788635 
	C286.922241,180.625763 286.909424,178.409943 285.935150,175.504425 
M314.473450,131.190979 
	C314.689117,127.539543 311.970001,126.749313 309.331543,126.358849 
	C306.032959,125.870689 302.508301,125.663620 300.137177,128.680222 
	C298.493286,130.771622 299.652313,132.559555 301.755463,133.458511 
	C306.149139,135.336487 310.437195,135.514893 314.473450,131.190979 
M336.053131,168.474243 
	C331.185608,169.298569 326.839569,174.506027 327.473389,178.913422 
	C327.750885,180.842880 328.584351,182.497452 331.021027,182.154160 
	C336.009216,181.451385 339.431946,173.325027 336.053131,168.474243 
M312.319397,193.053314 
	C315.104980,191.156372 315.333954,188.959412 312.376862,187.294357 
	C308.867981,185.318619 304.960938,185.227890 301.501770,187.397797 
	C298.781342,189.104309 298.612396,191.382660 301.700989,193.133606 
	C304.948883,194.974854 308.304199,195.093246 312.319397,193.053314 
z"/>
<path fill="#000000" opacity="1.000000" stroke="none" 
	d="
M315.836670,471.199646 
	C311.955414,468.168030 312.172974,465.690704 315.528046,462.541443 
	C321.963287,456.501068 328.117737,450.153290 334.228851,443.779724 
	C336.785248,441.113556 338.807098,440.398346 341.500458,443.619080 
	C343.734314,446.290375 346.466797,448.540497 348.927216,451.027802 
	C350.920685,453.043091 352.802673,454.588165 356.048248,454.930084 
	C359.823395,455.327911 362.327332,458.675629 363.814758,462.025085 
	C365.129211,464.985077 362.496277,466.910614 360.647491,468.783234 
	C353.858124,475.660065 347.028290,482.496979 340.211426,489.346649 
	C335.440002,494.141083 327.320709,492.531738 326.437347,485.829529 
	C325.742157,480.555054 322.380188,478.252136 319.585876,475.013702 
	C318.500336,473.755585 317.257141,472.633484 315.836670,471.199646 
z"/>
</svg>