<svg version="1.1" id="Layer_1" xmlns="http://www.w3.org/2000/svg" xmlns:xlink="http://www.w3.org/1999/xlink" x="0px" y="0px"
	 width="100%" viewBox="0 0 960 1024" enable-background="new 0 0 960 1024" xml:space="preserve">
<path fill="#000000" opacity="1.000000" stroke="none" 
	d="
M1.000000,507.000000 
	C1.000000,494.312439 1.000000,481.624878 1.000500,468.064880 
	C2.321659,461.665283 2.121089,455.955078 2.956288,450.385162 
	C6.979320,423.555634 13.055315,397.145020 19.366482,370.779083 
	C26.177496,342.325012 33.175915,313.893768 37.042236,284.840973 
	C39.484215,266.491180 39.671684,247.988312 39.534950,229.519409 
	C39.370846,207.354431 40.959995,185.268814 41.899757,163.154861 
	C42.273659,154.356491 42.781330,145.493225 44.222412,136.824814 
	C47.717014,115.803955 61.304836,103.556541 80.412399,95.928322 
	C118.754280,80.621269 156.964279,64.982422 195.180588,49.362743 
	C228.311783,35.821438 261.345734,22.042027 294.489014,8.530548 
	C304.699280,4.368145 314.982178,4.605733 324.934631,9.720210 
	C326.955627,10.758778 328.788788,11.243973 331.059631,10.153371 
	C337.651367,6.987601 344.345825,4.035768 351.000000,1.000001 
	C355.356903,1.000000 359.713806,1.000000 364.815857,1.195851 
	C372.746002,3.869338 377.639435,8.961581 381.125580,15.457603 
	C383.404785,19.704636 385.520569,24.072924 387.298737,28.550064 
	C403.230438,68.662903 417.332672,109.402817 428.729645,151.047928 
	C438.710938,187.520126 446.813812,224.389252 451.394135,261.964508 
	C452.153778,268.196259 453.801971,273.699371 458.059998,278.692657 
	C465.099792,286.947998 469.683136,296.789764 470.928131,307.524841 
	C471.685547,314.055634 474.608002,317.585876 479.961945,320.567230 
	C490.633087,326.509460 498.606781,335.060272 502.678925,346.789856 
	C503.609589,349.470673 505.337463,350.737793 507.853668,351.627655 
	C515.231201,354.236694 522.646545,356.778931 529.869690,359.774963 
	C540.348694,364.121460 549.871765,370.225708 556.178833,379.773468 
	C561.355713,387.610229 568.274109,392.388245 576.704041,395.619080 
	C588.899536,400.293091 599.369873,407.498444 608.257019,417.064117 
	C611.204651,420.236816 614.581543,423.035095 617.333496,426.359406 
	C621.336548,431.194977 626.463257,433.823547 632.279419,435.772552 
	C641.432434,438.839722 650.948181,441.583954 658.195251,448.305450 
	C670.325745,459.556213 684.004517,468.859161 696.510071,479.588043 
	C704.298401,486.269867 712.919556,490.130554 722.858032,491.669800 
	C729.583252,492.711395 735.574890,495.348022 740.798096,499.840973 
	C746.133362,504.430328 752.210815,507.898560 758.615417,510.812256 
	C776.998108,519.175171 796.862549,522.183777 816.297302,526.687805 
	C830.553284,529.991638 845.284241,531.002319 859.289856,535.633362 
	C877.699829,541.720703 894.967407,549.806274 908.458008,564.199707 
	C928.025574,585.076721 931.966675,610.370300 928.850952,637.672241 
	C927.423462,650.180847 924.845825,662.192688 930.979919,675.093140 
	C939.759888,693.558228 932.562073,705.520142 912.464600,710.498169 
	C909.097351,711.332275 907.459534,712.831787 907.145813,716.513916 
	C906.567749,723.299927 905.690796,730.091919 904.404785,736.778809 
	C902.401611,747.194763 903.786560,756.526978 911.401123,764.462646 
	C912.878723,766.002625 913.896667,767.995178 915.065857,769.817932 
	C930.161865,793.353027 948.200684,814.962158 961.000000,840.000000 
	C961.000000,846.687622 961.000000,853.375305 960.826538,860.821167 
	C955.653137,871.889954 946.816162,877.940674 936.993835,882.903015 
	C911.588562,895.737915 886.229919,908.666260 860.764038,921.379517 
	C847.685852,927.908508 834.903870,935.183899 820.195740,937.823486 
	C809.303406,939.778259 798.946411,940.343628 790.698364,931.001831 
	C788.671570,928.706360 786.858521,929.560486 785.788879,932.164612 
	C785.221863,933.545166 784.857971,935.007996 784.373352,936.423767 
	C772.860718,970.063232 751.670593,995.477783 720.202515,1012.275146 
	C708.162109,1018.702271 695.165344,1022.055359 682.000000,1025.000000 
	C671.312439,1025.000000 660.624878,1025.000000 649.119629,1024.854248 
	C641.512451,1023.097839 634.554749,1022.208557 627.935059,1019.868530 
	C587.062561,1005.420227 559.983887,977.100403 545.294739,936.774048 
	C540.065369,922.417847 544.054932,925.518005 529.087830,920.384277 
	C522.977600,918.288574 519.855591,912.903748 522.335083,906.968628 
	C526.374451,897.299622 523.573730,889.729736 517.291565,882.211548 
	C508.281982,871.429138 507.574829,860.718262 514.416382,848.453613 
	C515.864136,845.858276 516.301514,843.327209 516.001404,840.347839 
	C515.339844,833.779785 511.695068,828.528259 508.912292,822.888794 
	C503.417206,811.752686 504.563202,805.238525 513.973267,797.457764 
	C516.744995,795.165955 516.805847,793.016724 515.606323,790.063110 
	C511.157532,779.108887 499.585480,771.608276 486.652649,771.372437 
	C465.170990,770.980713 443.688141,770.631958 422.209167,770.121765 
	C403.064545,769.667175 383.927368,768.875183 364.781647,768.501221 
	C349.968445,768.211914 335.124512,767.811951 320.336609,768.447021 
	C308.573303,768.952332 300.062927,775.214355 295.648529,786.505554 
	C292.668365,794.128113 292.985199,795.150940 300.251129,798.874084 
	C308.657928,803.181824 310.591370,808.609802 305.803802,816.786072 
	C301.464020,824.197571 298.770294,832.205750 295.811157,840.155457 
	C294.699432,843.142151 294.652863,845.709900 296.476837,848.601929 
	C303.039337,859.007080 302.267944,869.411377 295.777954,879.591064 
	C294.166840,882.118103 292.539398,884.645996 290.744080,887.042114 
	C286.634552,892.526367 285.773132,898.297241 287.926788,904.902771 
	C290.889557,913.989990 288.438171,918.899231 278.897736,921.192688 
	C271.803528,922.898132 267.792145,926.392029 266.855011,933.530151 
	C266.769653,934.180298 266.480194,934.805847 266.267395,935.436707 
	C254.311813,970.882996 232.584198,997.808044 198.184021,1013.780334 
	C185.997604,1019.438477 173.105316,1022.545654 160.000000,1025.000000 
	C150.312439,1025.000000 140.624878,1025.000000 130.121796,1024.847412 
	C128.017090,1024.366943 126.744461,1023.935120 125.436256,1023.726746 
	C102.231552,1020.030273 81.955956,1009.956299 64.732185,994.286316 
	C31.928087,964.441467 16.273813,927.432373 21.933416,882.946716 
	C26.470211,847.286621 44.339230,819.010864 73.260590,797.698547 
	C78.445183,793.877930 78.514679,793.221375 73.617081,789.349182 
	C54.766613,774.445251 46.396915,754.584961 45.903641,731.004395 
	C45.665440,719.617432 45.833176,719.382141 34.784889,715.395264 
	C24.334932,711.624268 18.200581,704.617920 16.834845,693.607788 
	C16.282206,689.152588 15.901831,684.654358 15.803059,680.167847 
	C15.018808,644.544617 14.195608,608.921143 13.691180,573.293457 
	C13.574527,565.054260 12.884495,557.174255 9.917570,549.356873 
	C4.753001,535.749023 2.839725,521.360229 1.000000,507.000000 
M321.931244,47.455669 
	C321.180939,46.154495 320.459564,44.835617 319.675659,43.555004 
	C314.327637,34.818497 307.087158,32.252834 297.473358,35.725853 
	C295.753021,36.347324 294.097687,37.150700 292.419769,37.887104 
	C242.999283,59.577057 193.588028,81.288078 144.155548,102.950661 
	C126.763031,110.572510 109.309090,118.054077 91.902061,125.642975 
	C82.001129,129.959457 74.604759,136.629761 73.373817,147.945465 
	C71.105072,168.801270 69.298592,189.700836 69.356506,210.716431 
	C69.401520,227.048721 69.610558,243.387848 69.236816,259.712250 
	C68.729622,281.865509 66.870529,303.923370 62.716801,325.731781 
	C56.736179,357.131989 48.718082,388.077423 41.753582,419.258240 
	C35.379730,447.794708 30.851027,476.490753 32.284702,505.869751 
	C33.018753,520.912109 35.700306,535.595581 39.844887,550.053467 
	C40.758610,553.240845 42.415836,554.668091 45.805069,554.857971 
	C52.116192,555.211670 58.394398,556.116028 64.702049,556.574585 
	C96.760925,558.905273 128.679062,562.524414 160.513916,566.916077 
	C218.475479,574.911987 274.564911,590.456970 330.029907,608.652893 
	C375.148254,623.454468 419.667969,639.920044 464.223999,656.283325 
	C524.649475,678.474976 586.816101,687.802002 651.148254,683.647217 
	C683.718445,681.543823 716.393311,681.111938 749.002197,679.537476 
	C770.953918,678.477600 792.903076,677.091980 814.798584,675.213501 
	C839.501282,673.094055 864.134033,670.170349 888.818848,667.822998 
	C892.856201,667.439087 895.432068,665.832092 896.806946,662.227905 
	C898.645020,657.409546 900.651428,652.620850 902.018127,647.662964 
	C908.994568,622.354614 905.773438,599.347473 885.627380,580.758179 
	C872.887268,569.002441 857.662659,561.551453 840.952271,557.251587 
	C809.028503,549.036987 776.824158,542.002930 744.692078,534.666138 
	C737.464355,533.015808 737.570740,532.948730 735.053772,540.144897 
	C732.947754,546.166199 730.002747,551.556030 722.792908,552.533081 
	C710.504272,554.198486 699.433044,543.447021 700.421021,531.073608 
	C700.771118,526.689880 702.388367,522.655762 703.235901,518.420349 
	C704.425171,512.477295 701.921326,506.602661 697.223572,504.300934 
	C692.700378,502.084747 688.690613,503.327179 684.114990,508.448456 
	C682.006287,510.808685 679.971436,513.235901 677.933716,515.658447 
	C673.790894,520.583984 668.882080,524.506958 662.925903,527.009949 
	C659.622375,528.398193 656.301758,528.980286 652.779907,527.392029 
	C638.267517,520.847412 635.237305,507.398621 645.674622,495.577667 
	C647.471008,493.543121 649.785217,492.224396 651.992432,490.728973 
	C653.574036,489.657349 655.741394,489.233063 656.785767,486.391388 
	C649.790100,482.420624 642.847717,478.223846 635.671143,474.475525 
	C627.793030,470.360779 624.046509,471.100830 618.118225,477.896454 
	C612.974670,483.792542 608.438232,490.224457 603.211731,496.040619 
	C595.341309,504.799133 585.397644,505.190247 576.745300,497.530548 
	C568.135864,489.908813 567.263855,479.803955 574.620911,470.937195 
	C576.521667,468.646454 578.900024,466.754364 581.036682,464.656403 
	C585.484009,460.289368 590.490845,456.448822 594.308777,451.491974 
	C589.968689,447.355988 567.768311,435.549011 560.741272,432.944244 
	C553.425842,430.232635 547.401550,432.055573 541.908264,437.055054 
	C538.190430,440.438721 535.086853,444.358459 532.049805,448.328430 
	C527.807678,453.873840 522.063538,457.016418 515.497253,458.867706 
	C511.116730,460.102814 507.409271,459.044952 504.040588,455.882507 
	C492.451752,445.003082 492.920532,432.964142 505.451294,423.383575 
	C506.907257,422.270386 508.481720,421.294891 509.843140,420.078552 
	C513.747375,416.590607 517.882690,413.301422 521.219238,408.635834 
	C513.581482,403.454315 506.627899,398.305054 498.594910,394.928619 
	C492.962860,392.561401 487.742676,393.098785 482.577576,396.781281 
	C475.606934,401.751007 469.039795,407.040192 464.001221,414.045837 
	C462.146484,416.624664 460.013763,418.947662 457.477631,420.901215 
	C454.040527,423.548828 450.012878,424.482513 446.140472,423.049500 
	C437.635315,419.902039 431.752777,413.704742 429.935028,404.804749 
	C428.238068,396.495972 433.846466,391.597137 440.100372,387.476807 
	C446.777344,383.077820 453.373840,378.552734 460.129913,374.279480 
	C463.485077,372.157318 463.319000,370.381622 460.700165,367.702240 
	C453.479340,360.314453 446.244690,352.918335 439.446106,345.148682 
	C436.024353,341.238190 433.223633,340.603180 428.387543,342.911652 
	C416.813416,348.436615 405.159241,353.771118 393.851807,359.850861 
	C388.659424,362.642761 382.706268,364.463501 378.044983,359.609314 
	C367.463623,348.590088 364.308563,336.629456 378.328033,326.712158 
	C382.036682,324.088715 385.991180,321.976593 390.287109,320.572632 
	C396.141418,318.659363 402.003479,316.734985 407.954712,315.166077 
	C411.619537,314.199951 412.766388,312.776611 410.646484,309.286682 
	C407.782501,304.571808 404.834747,299.935211 400.845337,296.080414 
	C393.995087,289.461273 386.047821,286.885162 376.569183,289.230927 
	C370.835571,290.649872 365.758331,293.548645 360.344849,295.677490 
	C355.145233,297.722229 349.999573,298.363922 345.102814,294.883881 
	C338.407623,290.125763 334.465607,277.465240 337.195190,269.616394 
	C339.916229,261.792267 347.099762,257.596008 357.233185,257.955322 
	C361.892242,258.120514 366.547882,258.484497 371.207001,258.523407 
	C378.518616,258.584503 379.457977,257.477692 378.435608,250.426544 
	C375.522827,230.337540 372.898712,210.200073 369.579468,190.178085 
	C363.932556,156.115112 356.108948,122.576889 343.419769,90.344650 
	C341.629578,85.797325 339.430267,81.411064 337.165558,76.384872 
	C333.771240,80.290314 331.639221,83.923401 328.343079,86.513222 
	C321.533569,91.863480 314.074463,94.778412 305.589447,91.249557 
	C297.268890,87.789085 293.196167,80.939041 292.309448,72.169647 
	C291.326447,62.447735 295.909546,56.158585 305.382202,53.857552 
	C310.120941,52.706444 314.947540,52.597031 319.782715,52.542000 
	C323.212982,52.502960 323.858337,50.907776 321.931244,47.455669 
M402.499939,702.699097 
	C424.982697,702.699097 447.465454,702.699097 470.549622,702.699097 
	C469.230774,699.975098 467.657776,699.710083 466.334045,699.115845 
	C436.715424,685.821167 407.127411,672.457458 377.457123,659.278870 
	C343.198792,644.062561 308.426544,630.211914 272.092377,620.642578 
	C266.011139,619.041016 264.984802,619.699341 264.435577,625.760498 
	C262.334534,648.946045 260.258911,672.133911 258.224854,695.325378 
	C257.581055,702.665405 257.653961,702.682800 265.080139,702.684082 
	C310.553406,702.691956 356.026642,702.694519 402.499939,702.699097 
M630.101929,855.608337 
	C613.111633,870.491638 606.355408,889.176514 610.940308,911.216492 
	C617.335022,941.956238 646.698669,960.245178 677.522400,953.411438 
	C707.209106,946.829712 726.767700,916.308594 719.908264,887.440857 
	C710.888245,849.480042 664.677002,828.540649 630.101929,855.608337 
M90.361862,892.004333 
	C90.246048,893.998169 90.083206,895.990601 90.021469,897.986145 
	C89.100723,927.749268 114.358673,954.187683 144.163269,954.672302 
	C180.381943,955.261230 205.923416,926.109558 200.594391,890.264954 
	C195.782837,857.901062 164.700790,836.841553 132.980301,845.104797 
	C109.270699,851.281189 95.453590,867.297729 90.361862,892.004333 
M356.071106,28.747461 
	C348.356781,30.347456 346.748322,32.146698 349.261719,36.595119 
	C366.015350,66.247261 377.077026,98.076408 385.364807,130.958679 
	C394.442291,166.974075 399.539886,203.719864 405.234772,240.351654 
	C406.442169,248.118073 413.252716,253.046844 422.236908,252.212372 
	C422.950653,250.770493 422.563324,249.307404 422.297760,247.840439 
	C410.047546,180.171967 391.423126,114.298820 366.416534,50.245636 
	C363.593292,43.014019 361.525269,35.367325 356.071106,28.747461 
M598.257263,795.939392 
	C599.662292,800.317566 602.908203,799.648254 605.978943,798.482666 
	C620.449890,792.989746 635.267212,788.657166 650.180847,784.550049 
	C661.906494,781.321045 668.132446,772.446289 671.355652,761.315308 
	C672.843201,756.178345 670.328857,752.607117 665.064331,751.318604 
	C662.644470,750.726318 660.217773,750.324707 657.664734,750.659119 
	C647.622559,751.974304 637.555786,753.102722 627.516052,754.435120 
	C605.713013,757.328735 593.456787,774.308594 598.257263,795.939392 
M165.407776,785.198730 
	C170.806976,786.884216 176.250031,788.442505 181.595551,790.283875 
	C190.565781,793.373901 199.502365,796.567627 208.394836,799.874451 
	C212.197510,801.288574 214.024078,800.067017 214.700500,796.229126 
	C215.653381,790.822571 216.745132,785.438416 216.894028,779.929321 
	C216.989120,776.410828 216.966614,772.834106 214.956543,769.776001 
	C206.780487,757.336914 195.739700,749.125854 180.645691,747.275391 
	C174.045639,746.466248 173.364685,747.165833 172.289505,753.878723 
	C171.015518,761.833008 168.575027,764.559937 160.928757,766.264893 
	C159.339188,766.619324 157.688980,766.963074 157.871246,768.832581 
	C158.459702,774.867920 157.925156,781.470398 165.407776,785.198730 
M746.757629,817.744507 
	C752.466614,822.662598 755.925049,829.922729 762.722046,834.493652 
	C764.202332,831.057678 763.088318,828.854614 762.554321,826.674011 
	C761.611145,822.821899 761.776306,819.233215 763.541809,815.554077 
	C767.352539,807.612366 766.460327,803.770630 759.881042,798.080750 
	C757.873474,796.344482 755.834534,794.623169 753.668762,793.095093 
	C745.146057,787.081787 735.808960,787.049377 727.228210,792.898499 
	C722.963013,795.805908 722.832397,797.558472 726.880493,800.843262 
	C733.453369,806.176514 740.301453,811.180420 746.757629,817.744507 
z"/>
<path fill="#000000" opacity="1.000000" stroke="none" 
	d="
M329.822876,185.505875 
	C335.363739,183.761963 340.686157,183.465500 346.025391,183.464798 
	C358.530304,183.463150 366.627991,197.121017 360.404510,208.120010 
	C356.008179,215.889816 349.395782,221.405777 340.924286,224.515793 
	C337.828674,225.652237 334.703247,225.663818 331.644043,224.425812 
	C323.120605,220.976517 317.754272,214.653458 315.926270,205.745087 
	C313.936951,196.050400 318.605133,189.444199 329.822876,185.505875 
z"/>
<path fill="#000000" opacity="1.000000" stroke="none" 
	d="
M344.241211,146.062531 
	C341.805389,148.822144 339.752319,151.481003 337.287872,153.678528 
	C324.679413,164.921280 308.359406,159.986588 303.887054,143.667603 
	C300.361816,130.804550 306.425720,121.201340 319.547699,118.739250 
	C324.480225,117.813759 329.438171,117.384491 334.431915,117.749649 
	C342.016541,118.304260 346.638550,122.887489 347.291504,130.465347 
	C347.751434,135.803131 348.007294,141.145676 344.241211,146.062531 
z"/>
</svg>